<?xml version="1.0" standalone="no"?>
<!DOCTYPE svg PUBLIC "-//W3C//DTD SVG 1.1//EN" "http://www.w3.org/Graphics/SVG/1.1/DTD/svg11.dtd" >
<svg xmlns="http://www.w3.org/2000/svg">
<metadata>Generated by IcoMoon</metadata>
<defs>
<font id="icomoon" horiz-adv-x="1024">
<font-face units-per-em="1024" ascent="960" descent="-64" />
<missing-glyph horiz-adv-x="1024" />
<glyph unicode="&#x20;" horiz-adv-x="512" d="" />
<glyph unicode="&#xe900;" glyph-name="bug" d="M512 960c84.831 0 153.6-68.769 153.6-153.6 0-7.891-1.228-15.284-3.528-22.177 33.928-18.356 65.052-42.918 92.356-72.547l113.4 113.359c19.995 19.995 52.413 19.995 72.408 0 18.567-18.567 19.893-47.845 3.979-67.942l-3.979-4.466-125.722-125.688c28.897-53.671 47.323-114.664 53.54-178.902l104.747-0.037c28.277 0 51.2-22.923 51.2-51.2 0-26.257-19.765-47.898-45.229-50.856l-5.971-0.344-105.246 0.034c-6.897-64.562-26.080-124.816-54.809-177.18l127.489-127.481c19.995-19.995 19.995-52.413 0-72.408-18.567-18.567-47.845-19.893-67.942-3.979l-4.466 3.979-115.733 115.757c-63.195-67.474-147.086-108.776-240.094-108.776s-176.899 41.302-240.094 108.776l-115.733-115.757c-19.995-19.995-52.413-19.995-72.408 0-18.567 18.567-19.893 47.845-3.979 67.942l3.979 4.466 127.489 127.481c-28.721 52.35-47.902 112.585-54.803 177.128l-105.251 0.018c-28.277 0-51.2 22.923-51.2 51.2 0 26.257 19.765 47.898 45.229 50.856l5.971 0.344 104.742-0.014c6.213 64.256 24.641 125.268 53.545 178.953l-125.722 125.688c-19.995 19.995-19.995 52.413 0 72.408 18.567 18.567 47.845 19.893 67.942 3.979l4.466-3.979 113.4-113.359c29.835 32.376 64.231 58.702 101.838 77.613l-9.483-5.066c-2.301 6.894-3.528 14.286-3.528 22.177 0 84.831 68.769 153.6 153.6 153.6zM616.55 692.429l-209.254-0.051-1.299-0.726c-22.589-12.999-43.662-30.141-62.493-50.867v0l-9.225-10.659c-49.568-60.11-78.278-142.424-78.278-230.846 0-156.974 89.589-285.248 205.075-314.878l-0.275 5.199v460.8c0 28.277 22.923 51.2 51.2 51.2 26.257 0 47.898-19.765 50.856-45.229l0.344-5.971v-460.8l-0.275-5.199c115.486 29.63 205.075 157.903 205.075 314.878 0 88.422-28.71 170.736-78.278 230.846-24.085 29.207-52.371 52.208-83.136 67.678l9.965-5.375zM512 857.6c-22.218 0-41.13-14.151-48.215-33.932v0l-0.681-2.215 2.967-0.96c9.753-2.652 22.213-4.458 35.673-5.075v0l10.256-0.234c20.78 0 40.27 2.87 52.71 7.451v0l-3.865-1.182-0.63 2.215c-6.441 17.983-22.657 31.313-42.244 33.588v0z" />
<glyph unicode="&#xe901;" glyph-name="check" d="M915.884 821.76c22.91 24.331 60.041 24.331 82.936 0s22.91-63.772 0-88.093l-622.153-659.422c-22.91-24.331-60.041-24.331-82.936 0l-268.545 283.147c-22.91 24.331-22.91 63.772 0 88.093s60.041 24.331 82.936 0l227.085-239.096 580.679 615.371z" />
<glyph unicode="&#xe902;" glyph-name="close" d="M21.423 938.577c28.564 28.564 74.876 28.564 103.44 0v0l387.137-387.080 387.137 387.080c26.367 26.367 67.856 28.395 96.549 6.085l6.891-6.085c28.564-28.564 28.564-74.876 0-103.44v0l-387.080-387.137 387.080-387.137c26.367-26.367 28.395-67.856 6.085-96.549l-6.085-6.891c-28.564-28.564-74.876-28.564-103.44 0v0l-387.137 387.080-387.137-387.080c-26.367-26.367-67.856-28.395-96.549-6.085l-6.891 6.085c-28.564 28.564-28.564 74.876 0 103.44v0l387.080 387.137-387.080 387.137c-26.367 26.367-28.395 67.856-6.085 96.549z" />
<glyph unicode="&#xe903;" glyph-name="delete" d="M625.624 960l8.225-0.328c43.48-3.481 80.392-34.333 91.118-77.236l31.769-127.236h216.064c26.257 0 47.898-19.765 50.856-45.229l0.344-5.971c0-28.277-22.923-51.2-51.2-51.2v0h-51.2v-512c0-113.108-91.692-204.8-204.8-204.8h-409.6c-113.108 0-204.8 91.692-204.8 204.8v512h-51.2c-26.257 0-47.898 19.765-50.856 45.229l-0.344 5.971c0 28.277 22.923 51.2 51.2 51.2v0h216.013l31.82 127.236c11.396 45.585 52.355 77.564 99.343 77.564h227.249zM819.2 652.8h-614.4v-512c0-56.554 45.846-102.4 102.4-102.4h409.6c56.554 0 102.4 45.846 102.4 102.4v512zM409.6 550.4c28.277 0 51.2-22.923 51.2-51.2v0-307.2c0-28.277-22.923-51.2-51.2-51.2s-51.2 22.923-51.2 51.2v0 307.2c0 28.277 22.923 51.2 51.2 51.2zM614.4 550.4c28.277 0 51.2-22.923 51.2-51.2v0-307.2c0-28.277-22.923-51.2-51.2-51.2s-51.2 22.923-51.2 51.2v0 307.2c0 28.277 22.923 51.2 51.2 51.2zM625.624 857.6h-227.249l-25.6-102.4h278.449l-25.6 102.4z" />
<glyph unicode="&#xe904;" glyph-name="folder" d="M326.757 960c38.786 0 74.244-21.914 91.589-56.605l74.097-148.195h377.957c84.831 0 153.6-68.769 153.6-153.6v-512c0-84.831-68.769-153.6-153.6-153.6h-716.8c-84.831 0-153.6 68.769-153.6 153.6v716.8c0 84.831 68.769 153.6 153.6 153.6h173.157zM153.6 857.6c-28.277 0-51.2-22.923-51.2-51.2v-716.8c0-28.277 22.923-51.2 51.2-51.2h716.8c28.277 0 51.2 22.923 51.2 51.2v512c0 28.277-22.923 51.2-51.2 51.2h-377.957c-38.786 0-74.244 21.914-91.589 56.605l-74.097 148.195h-173.157z" />
<glyph unicode="&#xe905;" glyph-name="duplicate" d="M153.6 755.2c-83.742 0-148.965-72.724-153.363-161.136l-0.237-9.53v-477.867c0-89.46 62.335-165.269 144.7-170.391l8.9-0.276h512c83.742 0 148.965 72.724 153.363 161.136l0.237 9.53h-102.4c0-36.847-21.819-64.606-46.279-67.932l-4.921-0.335h-512c-24.726 0-48.091 25.456-50.915 61.023l-0.285 7.244v477.867c0 36.847 21.819 64.606 46.279 67.932l4.921 0.335v102.4zM358.4 960c-84.831 0-153.6-68.769-153.6-153.6v-512c0-84.831 68.769-153.6 153.6-153.6h512c84.831 0 153.6 68.769 153.6 153.6v512c0 84.831-68.769 153.6-153.6 153.6h-512zM358.4 857.6h512c28.277 0 51.2-22.923 51.2-51.2v-512c0-28.277-22.923-51.2-51.2-51.2h-512c-28.277 0-51.2 22.923-51.2 51.2v512c0 28.277 22.923 51.2 51.2 51.2zM614.4 755.2c-26.257 0-47.898-19.765-50.856-45.229l-0.344-5.971v-102.4h-102.4c-28.277 0-51.2-22.923-51.2-51.2 0-26.257 19.765-47.898 45.229-50.856l5.971-0.344h102.4v-102.4c0-28.277 22.923-51.2 51.2-51.2 26.257 0 47.898 19.765 50.856 45.229l0.344 5.971v102.4h102.4c28.277 0 51.2 22.923 51.2 51.2 0 26.257-19.765 47.898-45.229 50.856l-5.971 0.344h-102.349l-0.051 102.4c0 28.277-22.923 51.2-51.2 51.2z" />
<glyph unicode="&#xe906;" glyph-name="edit" d="M512 960c28.277 0 51.2-22.923 51.2-51.2s-22.923-51.2-51.2-51.2v0h-358.4c-28.277 0-51.2-22.923-51.2-51.2v0-716.8c0-28.277 22.923-51.2 51.2-51.2v0h716.8c28.277 0 51.2 22.923 51.2 51.2v0 358.4c0 28.277 22.923 51.2 51.2 51.2s51.2-22.923 51.2-51.2v0-358.4c0-84.831-68.769-153.6-153.6-153.6v0h-716.8c-84.831 0-153.6 68.769-153.6 153.6v0 716.8c0 84.831 68.769 153.6 153.6 153.6v0zM860.329 879.341l72.408-72.408c59.985-59.985 59.985-157.239 0-217.223l-295.843-295.843c-28.806-28.806-67.874-44.988-108.612-44.988h-123.608c-56.554 0-102.4 45.846-102.4 102.4v123.608c0 40.737 16.183 79.806 44.988 108.612l295.843 295.843c59.985 59.985 157.239 59.985 217.223 0zM606.902 698.321l-187.231-187.231c-9.602-9.602-14.996-22.625-14.996-36.204v-123.608h123.608c13.579 0 26.602 5.394 36.204 14.996l187.231 187.231-144.816 144.815zM715.514 806.933l-36.204-36.204 144.815-144.815 36.204 36.204c19.995 19.995 19.995 52.413 0 72.408l-72.408 72.408c-19.995 19.995-52.413 19.995-72.408 0z" />
<glyph unicode="&#xe907;" glyph-name="expired" d="M307.2 550.4c169.662 0 307.2-137.538 307.2-307.2s-137.538-307.2-307.2-307.2c-169.662 0-307.2 137.538-307.2 307.2s137.538 307.2 307.2 307.2zM307.2 448c-113.108 0-204.8-91.692-204.8-204.8s91.692-204.8 204.8-204.8c113.108 0 204.8 91.692 204.8 204.8s-91.692 204.8-204.8 204.8zM307.2 192c28.277 0 51.2-22.923 51.2-51.2s-22.923-51.2-51.2-51.2c-28.277 0-51.2 22.923-51.2 51.2s22.923 51.2 51.2 51.2zM614.4 960c226.216 0 409.6-183.384 409.6-409.6 0-110.066-43.683-213.345-119.969-289.631-37.998-37.998-83.126-68.259-132.834-88.871-26.12-10.831-56.075 1.563-66.907 27.684s1.563 56.076 27.684 66.907c37.252 15.447 71.115 38.154 99.65 66.689 57.273 57.273 89.977 134.594 89.977 217.223 0 169.662-137.538 307.2-307.2 307.2-82.629 0-159.951-32.704-217.223-89.977-28.534-28.534-51.242-62.398-66.689-99.65-10.831-26.12-40.786-38.515-66.907-27.684s-38.515 40.786-27.684 66.907c20.612 49.708 50.873 94.836 88.871 132.834 76.286 76.286 179.564 119.969 289.631 119.969zM307.2 396.8c28.277 0 51.2-22.923 51.2-51.2v0-51.2c0-28.277-22.923-51.2-51.2-51.2s-51.2 22.923-51.2 51.2v0 51.2c0 28.277 22.923 51.2 51.2 51.2zM614.4 806.4c28.277 0 51.2-22.923 51.2-51.2v0-153.6h102.4c26.257 0 47.898-19.765 50.856-45.229l0.344-5.971c0-28.277-22.923-51.2-51.2-51.2v0h-153.6c-28.277 0-51.2 22.923-51.2 51.2v0 204.8c0 28.277 22.923 51.2 51.2 51.2z" />
<glyph unicode="&#xe908;" glyph-name="forward" d="M784.191 957.373l2.781-1.015c0.763-0.304 1.52-0.625 2.269-0.965 0.682-0.312 1.341-0.629 1.991-0.959 2.785-1.403 5.468-3.078 7.985-4.997 0.523-0.438 1.062-0.87 1.591-1.311 5.208-4.266 9.614-9.659 12.824-16.008 1.837-3.769 3.147-7.3 4.059-10.949l0.149-0.642 204.8-870.4c8.953-38.052-26.318-71.696-63.905-60.957l-329.433 94.124-132.298-132.298c-28.141-28.141-76.223-14.823-85.875 23.786l-44.028 176.112-329.966 94.276c-39.228 11.208-50.231 61.553-19.255 88.104l717.47 614.974c0.628 0.518 1.267 1.021 1.917 1.508l-2.588-2.082c9.303 7.974 20.248 11.896 31.124 12.325 0.34-0.017 0.701-0.006 1.062 0.002 3.11 0.065 5.841-0.125 8.536-0.526 2.931-0.435 5.873-1.131 8.79-2.103l-2.078 0.645c0.595-0.171 1.188-0.353 1.776-0.545l0.302-0.1zM656.461 745.839l-499.663-428.361 266.868-76.248c17.594-5.027 31.168-19.061 35.606-36.812l29.268-117.071 89.657 89.657c13.148 13.148 32.391 18.134 50.27 13.026l274.513-78.432-144.732 615.041-153.784-437.92c-8.303-24.91-33.898-39.19-58.99-33.943l-5.774 1.561c-26.826 8.942-41.324 37.938-32.382 64.763v0l149.144 424.739z" />
<glyph unicode="&#xe909;" glyph-name="hamburger" d="M512.010 190.852c28.407 0 51.426-23.019 51.426-51.426 0-26.376-19.857-48.115-45.428-51.086l-6.003-0.34h-462.852c-28.407 0-51.426 23.019-51.426 51.426 0 26.376 19.857 48.115 45.427 51.086l6.003 0.34h462.852zM974.861 499.426c28.407 0 51.426-23.019 51.426-51.426 0-26.376-19.857-48.115-45.428-51.086l-6.003-0.34h-925.717c-28.407 0-51.426 23.019-51.426 51.426 0 26.376 19.857 48.115 45.428 51.086l6.003 0.34h925.717zM974.861 808c28.407 0 51.426-23.019 51.426-51.426 0-26.376-19.857-48.115-45.428-51.086l-6.003-0.34h-925.717c-28.407 0-51.426 23.019-51.426 51.426 0 26.376 19.857 48.115 45.428 51.086l6.003 0.34h925.717z" />
<glyph unicode="&#xe90a;" glyph-name="lock" d="M512 960c141.385 0 256-114.615 256-256v-153.6h102.4c84.831 0 153.6-68.769 153.6-153.6v-307.2c0-84.831-68.769-153.6-153.6-153.6h-716.8c-84.831 0-153.6 68.769-153.6 153.6v307.2c0 84.831 68.769 153.6 153.6 153.6h102.4v153.6c0 141.385 114.615 256 256 256zM870.4 448h-716.8c-28.277 0-51.2-22.923-51.2-51.2v-307.2c0-28.277 22.923-51.2 51.2-51.2h716.8c28.277 0 51.2 22.923 51.2 51.2v307.2c0 28.277-22.923 51.2-51.2 51.2zM563.2 396.8c56.554 0 102.4-45.846 102.4-102.4v-102.4c0-56.554-45.846-102.4-102.4-102.4h-102.4c-56.554 0-102.4 45.846-102.4 102.4v102.4c0 56.554 45.846 102.4 102.4 102.4h102.4zM563.2 294.4h-102.4v-102.4h102.4v102.4zM512 857.6c-84.831 0-153.6-68.769-153.6-153.6v-153.6h307.2v153.6c0 84.831-68.769 153.6-153.6 153.6z" />
<glyph unicode="&#xe90b;" glyph-name="plus" d="M597.333 533.333h426.667v-170.667h-426.667v-426.667h-170.667v426.667h-426.667v170.667h426.667v426.667h170.667v-426.667z" />
<glyph unicode="&#xe90c;" glyph-name="respond" d="M509.406 89.577c0-44.253-47.591-67.664-77.576-38.162l-416.307 409.6c-20.686 20.353-20.686 55.971 0 76.324l416.307 409.6c29.985 29.502 77.576 6.091 77.576-38.162v-201.599c126.136 0.719 245.215-56.881 355.369-170.68 127.224-131.433 177.847-318.21 153.147-555.154-4.878-46.79-59.755-62.127-84.345-23.573l-21.271 33.095c-93.788 144.756-161.377 233.090-198.483 261.477-72.665 55.59-135.258 83.128-179.635 85.536-8.801 0.478-15.938-0.124-21.195-1.321l-3.587-1.002v-245.979zM116.372 499.177l299.944-295.112v141.512c0 133.32 176.959 123.718 350.659-9.166 34.622-26.487 81.123-81.689 141.052-166.883l21.712-31.316c-7.538 135.831-50.615 242.984-128.692 323.644-106.098 109.608-216.089 155.263-332.714 140.076-27.682-3.605-52.017 20.182-52.017 50.845v141.512l-299.944-295.112z" />
<glyph unicode="&#xe90d;" glyph-name="search" d="M782.996 177.004c19.995 19.995 52.413 19.995 72.408 0v0l153.6-153.6c19.995-19.995 19.995-52.413 0-72.408s-52.413-19.995-72.408 0v0l-153.6 153.6c-19.995 19.995-19.995 52.413 0 72.408zM435.2 960c240.354 0 435.2-194.846 435.2-435.2s-194.846-435.2-435.2-435.2c-240.354 0-435.2 194.846-435.2 435.2s194.846 435.2 435.2 435.2zM435.2 857.6c-183.8 0-332.8-149-332.8-332.8s149-332.8 332.8-332.8c183.8 0 332.8 149 332.8 332.8s-149 332.8-332.8 332.8zM327.398 785.014c26.12 10.831 56.075-1.563 66.907-27.684s-1.563-56.075-27.684-66.907c-21.723-9.008-41.481-22.257-58.135-38.91s-29.902-36.411-38.91-58.135c-8.924-21.521-13.576-44.682-13.576-68.579s4.652-47.058 13.576-68.579c9.008-21.723 22.257-41.481 38.91-58.135 19.995-19.995 19.995-52.413 0-72.408s-52.413-19.995-72.408 0c-26.117 26.117-46.92 57.14-61.093 91.319-14.058 33.901-21.386 70.385-21.386 107.802s7.329 73.901 21.386 107.802c14.173 34.18 34.975 65.202 61.093 91.319s57.14 46.92 91.319 61.093z" />
<glyph unicode="&#xe90e;" glyph-name="ascending" d="M467.747 945.078l1.975 1.39-1.056-0.682-0.919-0.708zM171.263 685.901c-28.062-24.555-32.846-65.817-12.494-95.93l5.613-7.28c24.555-28.062 65.817-32.846 95.93-12.494l7.28 5.613 171.263 149.767 0.001-716.434c0-37.51 28.236-68.426 64.613-72.651l8.53-0.492c40.396 0 73.143 32.747 73.143 73.143v0l-0.001 716.434 171.265-149.767c28.062-24.554 69.594-23.818 96.74 0.351l6.471 6.53c24.555 28.062 23.818 69.594-0.351 96.74l-6.53 6.471-293.18 256.529c-0.663 0.568-1.337 1.124-2.020 1.669l3.192-2.685c-2.439 2.183-4.994 4.177-7.647 5.98-0.904 0.604-1.849 1.216-2.804 1.803l-4.345 2.476-2.813 1.395c-1.932 0.907-3.896 1.725-5.888 2.455-0.583 0.22-1.113 0.407-1.645 0.588-2.18 0.735-4.439 1.383-6.719 1.922-0.51 0.13-1.020 0.244-1.53 0.353-1.989 0.417-3.994 0.758-6.009 1.016-3.042 0.395-6.161 0.596-9.328 0.596l7.898-0.511-0.761 0.167c-2.196 0.209-4.391 0.325-6.588 0.342h-1.098c-2.197-0.017-4.392-0.133-6.579-0.347l-0.828-0.080c-0.465-0.050-0.928-0.105-1.39-0.164l1.186 0.141c-2.399-0.274-4.799-0.663-7.178-1.172-0.51-0.1-1.019-0.214-1.528-0.334-2.282-0.548-4.54-1.197-6.768-1.955-0.484-0.157-1.015-0.345-1.543-0.538-2.046-0.756-4.011-1.574-5.942-2.481l-0.69-0.331c-0.245-0.118-0.489-0.238-0.732-0.359-0.184-0.089-0.392-0.194-0.599-0.3l-0.792-0.406-4.352-2.472c-0.979-0.621-1.448-0.923-1.914-1.23l-0.882-0.578-1.197-0.925 0.439 0.366-1.402-0.98c-0.583-0.428-1.159-0.864-1.728-1.308l0.716 0.532-1.759-1.349-1.533-1.357-0.621-0.471 0.475 0.325-1.097-0.88c-0.987-0.889-1.581-1.447-2.166-2.015l0.264 0.262-290.047-253.691zM456.954 935.020l1.492 1.654c-0.2-0.215-0.399-0.431-0.596-0.648l-0.896-1.006z" />
<glyph unicode="&#xe90f;" glyph-name="descending" d="M467.747-49.079l1.975-1.39-1.056 0.682-0.919 0.708zM171.263 210.098c-28.062 24.555-32.846 65.817-12.494 95.93l5.613 7.28c24.555 28.062 65.817 32.846 95.93 12.494l7.28-5.613 171.263-149.767 0.001 716.434c0 37.51 28.236 68.426 64.613 72.651l8.53 0.492c40.396 0 73.143-32.747 73.143-73.143v0l-0.001-716.434 171.265 149.767c28.062 24.554 69.594 23.818 96.74-0.351l6.471-6.53c24.555-28.062 23.818-69.594-0.351-96.74l-6.53-6.471-293.18-256.529c-0.663-0.568-1.337-1.124-2.020-1.669l3.192 2.685c-2.439-2.183-4.994-4.177-7.647-5.98-0.904-0.604-1.849-1.216-2.804-1.803l-4.345-2.476-2.813-1.395c-1.932-0.907-3.896-1.725-5.888-2.455-0.583-0.22-1.113-0.407-1.645-0.588-2.18-0.735-4.439-1.383-6.719-1.922-0.51-0.13-1.020-0.244-1.53-0.353-1.989-0.417-3.994-0.758-6.009-1.016-3.042-0.395-6.161-0.596-9.328-0.596l7.898 0.511-0.761-0.167c-2.196-0.209-4.391-0.325-6.588-0.342h-1.098c-2.197 0.017-4.392 0.133-6.579 0.347l-0.828 0.080c-0.465 0.050-0.928 0.105-1.39 0.164l1.186-0.141c-2.399 0.274-4.799 0.663-7.178 1.172-0.51 0.1-1.019 0.214-1.528 0.334-2.282 0.548-4.54 1.197-6.768 1.955-0.484 0.157-1.015 0.345-1.543 0.538-2.046 0.756-4.011 1.574-5.942 2.481l-0.69 0.331c-0.245 0.118-0.489 0.238-0.732 0.359-0.184 0.089-0.392 0.194-0.599 0.3l-0.792 0.406-4.352 2.472c-0.979 0.621-1.448 0.923-1.914 1.23l-0.882 0.578-1.197 0.925 0.439-0.366-1.402 0.98c-0.583 0.428-1.159 0.864-1.728 1.308l0.716-0.532-1.759 1.349-1.533 1.357-0.621 0.471 0.475-0.325-1.097 0.88c-0.987 0.889-1.581 1.447-2.166 2.015l0.264-0.262-290.047 253.691zM456.954-39.021l1.492-1.654c-0.2 0.215-0.399 0.431-0.596 0.648l-0.896 1.006z" />
<glyph unicode="&#xe910;" glyph-name="caret-down" d="M904.7 701.728c22.651 22.651 59.385 22.651 82.041 0s22.651-59.385 0-82.041l-425.417-425.417c-22.651-22.651-59.385-22.651-82.041 0l-425.417 425.417c-22.651 22.651-22.651 59.385 0 82.041s59.385 22.651 82.041 0l384.397-384.397 384.397 384.397z" />
<glyph unicode="&#xe911;" glyph-name="caret-right" d="M292.639 811.496c-21.423 21.423-21.423 56.157 0 77.58s56.157 21.423 77.58 0l402.286-402.286c21.423-21.423 21.423-56.157 0-77.58l-402.286-402.286c-21.423-21.423-56.157-21.423-77.58 0s-21.423 56.157 0 77.58l363.496 363.496-363.496 363.496z" />
<glyph unicode="&#xe912;" glyph-name="caret-left" d="M724.504 811.496c21.423 21.423 21.423 56.157 0 77.58s-56.157 21.423-77.58 0l-402.286-402.286c-21.423-21.423-21.423-56.157 0-77.58l402.286-402.286c21.423-21.423 56.157-21.423 77.58 0s21.423 56.157 0 77.58l-363.496 363.496 363.496 363.496z" />
<glyph unicode="&#xe913;" glyph-name="filter" d="M512 243.201c67.164 0 124.26-43.108 145.128-103.166l2.501 0.421 5.971 0.344h307.2c28.277 0 51.2-22.923 51.2-51.2 0-26.257-19.765-47.898-45.229-50.856l-5.971-0.344h-307.2c-2.896 0-5.735 0.24-8.5 0.702-20.841-59.994-77.936-103.102-145.1-103.102s-124.26 43.108-145.128 103.166l-2.501-0.421-5.971-0.344h-307.2c-28.277 0-51.2 22.923-51.2 51.2 0 26.257 19.765 47.898 45.229 50.856l5.971 0.344h307.2c2.896 0 5.735-0.24 8.5-0.702 20.841 59.994 77.936 103.102 145.1 103.102zM512 140.801c-28.277 0-51.2-22.923-51.2-51.2s22.923-51.2 51.2-51.2c28.277 0 51.2 22.923 51.2 51.2s-22.923 51.2-51.2 51.2zM153.6 601.601c67.164 0 124.26-43.108 145.128-103.166l2.501 0.421 5.971 0.344h665.6c28.277 0 51.2-22.923 51.2-51.2 0-26.257-19.765-47.898-45.229-50.856l-5.971-0.344h-665.6c-2.896 0-5.735 0.24-8.5 0.702-20.841-59.994-77.936-103.102-145.1-103.102-84.831 0-153.6 68.769-153.6 153.6s68.769 153.6 153.6 153.6zM153.6 499.201c-28.277 0-51.2-22.923-51.2-51.2s22.923-51.2 51.2-51.2c28.277 0 51.2 22.923 51.2 51.2s-22.923 51.2-51.2 51.2zM716.8 960.001c67.164 0 124.26-43.108 145.128-103.166l2.501 0.421 5.971 0.344h102.4c28.277 0 51.2-22.923 51.2-51.2 0-26.257-19.765-47.898-45.229-50.856l-5.971-0.344h-102.4c-2.896 0-5.735 0.24-8.5 0.702-20.841-59.994-77.936-103.102-145.1-103.102s-124.26 43.108-145.128 103.166l-2.501-0.421-5.971-0.344h-512c-28.277 0-51.2 22.923-51.2 51.2 0 26.257 19.765 47.898 45.229 50.856l5.971 0.344h512c2.896 0 5.735-0.24 8.5-0.702 20.841 59.994 77.936 103.102 145.1 103.102zM716.8 857.601c-28.277 0-51.2-22.923-51.2-51.2s22.923-51.2 51.2-51.2c28.277 0 51.2 22.923 51.2 51.2s-22.923 51.2-51.2 51.2z" />
<glyph unicode="&#xe914;" glyph-name="download" d="M117.396 125.804c19.995 19.995 52.413 19.995 72.408 0v0l87.404-87.404h469.584l87.404 87.404c19.995 19.995 52.413 19.995 72.408 0s19.995-52.413 0-72.408v0l-117.396-117.396h-554.415l-117.396 117.396c-19.995 19.995-19.995 52.413 0 72.408zM517.478 166.707l-0.482-0.067c-1.281-0.122-2.562-0.199-3.843-0.228l-1.153-0.013c2.216 0 4.4 0.141 6.529 0.417l-2.434-0.161 1.382 0.051zM482.406 175.872l-1.331 0.922-0.051 0.051-1.231 0.944-1.073 0.951-0.435 0.329 0.332-0.226-0.768 0.615-0.864 0.79-0.468 0.439-203.033 177.583c-19.644 17.188-22.992 46.072-8.745 67.151l3.929 5.096c17.188 19.644 46.072 22.992 67.151 8.745l5.096-3.929 119.884-104.836 0.001 578.303c0 26.257 19.765 47.898 45.229 50.856l5.971 0.344c26.257 0 47.898-19.765 50.856-45.229l0.344-5.971-0.001-578.303 119.885 104.836c19.644 17.188 48.716 16.673 67.718-0.246l4.529-4.571c17.188-19.644 16.673-48.716-0.246-67.718l-4.571-4.529-204.406-178.859c-1.707-1.528-3.496-2.924-5.353-4.186-0.633-0.423-1.294-0.851-1.963-1.262l-3.041-1.734-1.969-0.977c-1.352-0.635-2.728-1.208-4.122-1.718-0.408-0.154-0.779-0.285-1.151-0.411-1.526-0.514-3.107-0.968-4.704-1.345-0.357-0.091-0.714-0.171-1.071-0.247-1.392-0.292-2.796-0.531-4.206-0.711l-2.434-0.161-4.095-0.256-0.569 0.003 0.185-0.002c-1.538 0.012-3.075 0.093-4.605 0.243l-0.529 0.050c-0.342 0.037-0.684 0.077-1.024 0.12l0.83-0.099c-1.68 0.192-3.36 0.464-5.024 0.82-0.357 0.070-0.713 0.15-1.070 0.234-1.597 0.384-3.178 0.838-4.738 1.368-0.339 0.11-0.71 0.241-1.080 0.377-1.432 0.529-2.808 1.102-4.16 1.737l-0.483 0.231c-0.171 0.083-0.342 0.167-0.513 0.251-0.129 0.062-0.274 0.136-0.419 0.21l-0.554 0.284-3.047 1.73c-0.685 0.435-1.014 0.646-1.34 0.861l-0.617 0.404-0.838 0.649 0.307-0.256-1.024 0.717 0.717-0.461z" />
<glyph unicode="&#xe915;" glyph-name="builder" d="M574.718 526.66l409.307-353.496c45.078-42.251 53.84-128.531 13.425-169.22s-120.861-35.961-162.83 7.855v0l-364.825 411.445 104.925 103.415zM372.391 861.722c102.099 62.865 225.469 75.436 330.408 34.925 60.977-23.746 86.502-67.054 73.738-85.219-12.764-19.557-52.47-16.765-97.848-16.765l-9.11 0.004c-42.633-1.253-86.754-20.029-118.515-46.109-42.542-34.925-39.705-88.010-34.033-138.304 9.928-9.778 8.509-25.147 2.836-36.32v0l-96.43-94.997c-8.509-8.382-21.268-9.778-31.196-4.191-29.778 16.765-86.502-9.778-100.683-37.721-5.673-12.574-5.673-32.129-7.091-46.103-1.418-11.178-7.091-20.956-15.601-29.338v0l-65.229-64.263c-9.928-9.778-26.941-8.382-36.869 1.395v0l-157.404 155.069c-11.346 11.178-11.346 26.542-1.418 36.32v0l65.229 64.263c7.091 8.382 18.436 13.969 29.778 15.368 15.601 2.796 42.542 1.395 53.888 12.574 25.523 26.542 39.705 57.276 29.778 94.997-5.673 9.778-4.255 22.351 4.255 30.734v0l96.43 94.997c5.673 5.587 12.764 6.987 19.852 6.987 19.852 19.557 42.542 37.721 65.229 51.69z" />
<glyph unicode="&#xe916;" glyph-name="sort1" d="M153.59 192.020c28.275 0 51.196-22.921 51.196-51.196 0-26.255-19.764-47.894-45.226-50.852l-5.971-0.344h-102.392c-28.275 0-51.196 22.921-51.196 51.196 0 26.255 19.764 47.894 45.226 50.852l5.971 0.344h102.392zM804.33 806.372l5.971-0.344c25.462-2.957 45.226-24.596 45.226-50.852v0l-0.041-494.86 81.668 79.684 4.789 4.135c19.912 15.161 48.37 13.783 66.729-4.135v0l0.442-0.431 4.163-4.601c15.294-19.184 14.265-47.204-3.316-65.217-0.279-0.286-0.561-0.568-0.848-0.848v0l-166.438-162.494c-18.26-19.778-51.999-24.053-74.547-2.046v0l-168.583 164.539-4.163 4.601c-15.294 19.184-14.265 47.204 3.316 65.217 0.279 0.286 0.561 0.568 0.848 0.848v0l0.442 0.431 4.789 4.135c19.912 15.161 48.37 13.783 66.729-4.135v0l81.628-79.67v494.845l0.344 5.971c2.957 25.462 24.596 45.226 50.852 45.226v0zM307.177 396.804c28.275 0 51.196-22.921 51.196-51.196 0-26.255-19.764-47.894-45.226-50.852l-5.971-0.344h-255.98c-28.275 0-51.196 22.921-51.196 51.196 0 26.255 19.764 47.894 45.226 50.852l5.971 0.344h255.98zM460.765 601.588c28.275 0 51.196-22.921 51.196-51.196 0-26.255-19.764-47.894-45.226-50.852l-5.971-0.344h-409.568c-28.275 0-51.196 22.921-51.196 51.196 0 26.255 19.764 47.894 45.226 50.852l5.971 0.344h409.568zM563.156 806.372c28.275 0 51.196-22.921 51.196-51.196 0-26.255-19.764-47.894-45.226-50.852l-5.971-0.344h-511.96c-28.275 0-51.196 22.921-51.196 51.196 0 26.255 19.764 47.894 45.226 50.852l5.971 0.344h511.96z" />
<glyph unicode="&#xe917;" glyph-name="add" d="M512 960c282.77 0 512-229.23 512-512s-229.23-512-512-512c-282.77 0-512 229.23-512 512s229.23 512 512 512zM512 857.6c-226.216 0-409.6-183.384-409.6-409.6s183.384-409.6 409.6-409.6c226.216 0 409.6 183.384 409.6 409.6s-183.384 409.6-409.6 409.6zM512 704c28.277 0 51.2-22.923 51.2-51.2v0-153.6h153.6c26.257 0 47.898-19.765 50.856-45.229l0.344-5.971c0-28.277-22.923-51.2-51.2-51.2v0h-153.6v-153.6c0-26.257-19.765-47.898-45.229-50.856l-5.971-0.344c-28.277 0-51.2 22.923-51.2 51.2v0 153.6h-153.6c-26.257 0-47.898 19.765-50.856 45.229l-0.344 5.971c0 28.277 22.923 51.2 51.2 51.2v0h153.6v153.6c0 26.257 19.765 47.898 45.229 50.856z" />
<glyph unicode="&#xe918;" glyph-name="gear-solid" d="M568.739 960c21.364 0 39.983-14.569 45.149-35.281v0l18.944-75.683c27.043-8.145 52.922-18.851 77.359-31.977v0l66.839 40.076c7.447 4.468 15.732 6.656 23.924 6.656 12.055 0 23.971-4.655 32.954-13.638v0l80.244-80.244c15.127-15.081 18.013-38.54 7.028-56.879v0l-40.122-66.839c13.126-24.436 23.831-50.316 31.977-77.359v0l75.729-18.944c20.666-5.167 35.235-23.785 35.235-45.149v0-113.478c0-21.364-14.569-39.983-35.235-45.196v0l-75.729-18.897c-8.145-27.043-18.851-52.969-31.977-77.359v0l40.122-66.886c10.985-18.292 8.099-41.751-7.028-56.832v0l-80.244-80.291c-8.983-8.937-20.899-13.638-32.954-13.638-8.192 0-16.477 2.188-23.924 6.656v0l-66.839 40.122c-24.436-13.126-50.316-23.878-77.359-31.977v0l-18.944-75.683c-5.167-20.759-23.785-35.281-45.149-35.281v0h-113.478c-21.364 0-39.983 14.522-45.149 35.281v0l-18.944 75.683c-27.043 8.099-52.922 18.851-77.359 31.977v0l-66.839-40.122c-7.447-4.468-15.732-6.656-23.924-6.656-12.055 0-23.971 4.701-32.954 13.638v0l-80.244 80.291c-15.127 15.081-18.013 38.54-7.028 56.832v0l40.122 66.886c-13.126 24.39-23.831 50.316-31.977 77.359v0l-75.729 18.897c-20.666 5.213-35.235 23.831-35.235 45.196v0 113.478c0 21.364 14.569 39.983 35.235 45.149v0l75.729 18.944c8.145 27.043 18.851 52.922 31.977 77.359v0l-40.122 66.839c-10.985 18.339-8.099 41.798 7.028 56.879v0l80.244 80.244c8.983 8.983 20.899 13.638 32.954 13.638 8.192 0 16.477-2.188 23.924-6.656v0l66.839-40.076c24.436 13.126 50.316 23.831 77.359 31.977v0l18.944 75.683c5.167 20.713 23.785 35.281 45.149 35.281v0zM512 680.718c-128.326 0-232.727-104.401-232.727-232.727s104.401-232.727 232.727-232.727c128.326 0 232.727 104.401 232.727 232.727s-104.401 232.727-232.727 232.727z" />
<glyph unicode="&#xe919;" glyph-name="gear-lined" d="M566.272 960c30.649 0 57.369-20.888 64.781-50.603l15.104-60.342c18.811-6.279 37.050-13.815 54.617-22.567l53.28 31.946c10.47 6.282 22.332 9.539 34.337 9.539 17.629 0 34.627-6.929 47.262-19.565l76.731-76.731c21.709-21.642 25.862-55.3 10.092-81.628l-31.985-53.283c8.75-17.564 16.285-35.8 22.563-54.608l60.381-15.104c29.692-7.423 50.565-34.147 50.565-64.782v-108.544c0-30.617-20.849-57.331-50.574-64.829l-60.373-15.065c-6.286-18.839-13.823-37.090-22.559-54.611l31.981-53.314c15.777-26.273 11.62-59.943-10.062-81.558l-76.801-76.845c-12.646-12.58-29.635-19.524-47.221-19.524-12.005 0-23.867 3.257-34.341 9.541l-53.28 31.983c-17.63-8.79-35.872-16.336-54.617-22.578l-15.093-60.297c-7.409-29.77-34.121-50.632-64.788-50.632h-108.544c-30.667 0-57.379 20.862-64.781 50.603l-15.1 60.326c-18.745 6.242-36.987 13.788-54.617 22.578l-53.284-31.986c-10.47-6.282-22.332-9.539-34.337-9.539-17.586 0-34.576 6.944-47.267 19.569l-76.727 76.771c-21.71 21.644-25.868 55.313-10.096 81.577l31.986 53.323c-8.735 17.521-16.273 35.772-22.559 54.611l-60.428 15.079c-29.67 7.484-50.519 34.198-50.519 64.815v108.544c0 30.635 20.872 57.359 50.562 64.782l60.384 15.105c6.278 18.808 13.813 37.044 22.563 54.608l-31.995 53.301c-15.759 26.31-11.605 59.967 10.079 81.585l76.755 76.755c12.635 12.635 29.633 19.565 47.262 19.565 12.005 0 23.867-3.257 34.331-9.535l53.286-31.949c17.567 8.751 35.806 16.288 54.617 22.567l15.1 60.324c7.416 29.733 34.136 50.621 64.785 50.621h108.544zM548.894 870.957h-73.788l-13.895-55.545c-5.672-22.822-22.993-40.952-45.563-47.783-21.583-6.483-42.313-15.042-61.68-25.477-9.757-5.208-20.607-7.921-31.541-7.921-9.683 0-19.218 2.072-27.974 6.106l-6.411 3.391-49.028 29.43-52.17-52.17 29.455-49.069c12.076-20.216 12.664-45.302 1.501-66.025-10.379-19.221-18.938-39.943-25.434-61.569-6.188-20.507-21.762-36.669-41.682-43.697l-6.101-1.83-55.537-13.901v-73.793l55.501-13.892c22.827-5.673 40.998-22.998 47.828-45.563 6.488-21.598 15.048-42.321 25.451-61.587 10.025-18.669 10.551-40.856 1.735-59.826l-3.285-6.195-29.433-49.032 52.177-52.208 49.010 29.42c10.437 6.276 22.316 9.55 34.4 9.55 10.969 0 21.834-2.729 31.647-7.998 19.278-10.367 40.017-18.924 61.619-25.413 20.478-6.198 36.654-21.745 43.682-41.642l1.829-6.095 13.903-55.578h73.788l13.895 55.545c5.672 22.822 22.993 40.952 45.563 47.783 21.558 6.476 42.297 15.032 61.588 25.407 9.8 5.262 20.665 7.991 31.634 7.991 9.667 0 19.202-2.095 27.967-6.142l6.419-3.399 49.024-29.428 52.177 52.208-29.441 49.046c-12.093 20.177-12.681 45.264-1.518 66.052 10.379 19.221 18.938 39.943 25.44 61.586 6.197 20.473 21.777 36.652 41.682 43.681l6.096 1.829 55.537 13.901v73.793l-55.501 13.892c-22.849 5.679-41.013 22.978-47.828 45.563-6.488 21.598-15.048 42.321-25.437 61.561-10.038 18.633-10.565 40.816-1.749 59.834l3.285 6.213 29.43 49.028-52.17 52.17-49.014-29.422c-10.423-6.267-22.296-9.505-34.4-9.505-10.935 0-21.784 2.712-31.618 7.962-19.291 10.394-40.021 18.953-61.649 25.449-20.478 6.198-36.654 21.745-43.682 41.642l-1.829 6.095-13.903 55.578zM512 692.861c135.041 0 244.87-109.829 244.87-244.87s-109.829-244.87-244.87-244.87c-135.041 0-244.87 109.829-244.87 244.87s109.829 244.87 244.87 244.87zM165.837 295.219l5.393-11.8 7.525-14.753-12.918 26.553zM512 603.817c-85.921 0-155.826-69.905-155.826-155.826s69.905-155.826 155.826-155.826c85.921 0 155.826 69.905 155.826 155.826s-69.905 155.826-155.826 155.826zM164.966 297.114l0.475-1.103 0.396-0.791-0.87 1.894zM161.792 304.794l2.59-6.331 0.585-1.349-3.174 7.68zM158.199 313.814l1.46-3.812 2.133-5.157-3.593 8.969zM874.284 338.842l-4.708-14.562c1.657 4.812 3.221 9.667 4.708 14.562v0z" />
<glyph unicode="&#xe91a;" glyph-name="hidden" d="M133.781 898.063l4.823-4.259 819.2-819.2c19.994-19.995 19.994-52.413 0-72.408-18.457-18.457-47.499-19.876-67.585-4.259l-4.823 4.259-819.2 819.2c-19.994 19.995-19.994 52.413 0 72.408 18.457 18.457 47.499 19.876 67.585 4.259zM123.247 691.89l72.033-72.059c-57.723-56.486-92.88-120.703-92.88-171.831 0-118.462 188.738-307.2 409.6-307.2 48.11 0 94.696 8.956 138.139 24.189l78.738-78.718c-66.268-29.822-139.925-47.872-216.877-47.872-277.416 0-512 234.584-512 409.6 0 78.149 46.773 168.176 123.247 243.89zM512 857.6c277.416 0 512-234.584 512-409.6 0-78.149-46.773-168.176-123.247-243.89l-72.084 72.010c57.753 56.497 92.93 120.738 92.93 171.88 0 118.462-188.738 307.2-409.6 307.2-48.129 0-94.733-8.962-138.19-24.207l-78.687 78.736c66.268 29.822 139.925 47.872 216.877 47.872zM314.12 500.985l250.865-250.865c-16.9-4.513-34.662-6.92-52.985-6.92-113.107 0-204.8 91.692-204.8 204.8 0 18.323 2.407 36.085 6.92 52.985zM512 652.8c113.107 0 204.8-91.692 204.8-204.8 0-18.342-2.411-36.121-6.934-53.036l-125.113 125.096c-0.23 0.232-0.462 0.463-0.694 0.694l-125.096 125.113c16.915 4.522 34.694 6.934 53.036 6.934z" />
<glyph unicode="&#xe91b;" glyph-name="flag" d="M153.6 960.001c26.257 0 47.898-19.765 50.856-45.229l0.344-5.971 0.013-20.836c114.899-61.156 237.892-105.781 369.115-133.901 130.111-27.881 214.367-13.838 258.317 35.278v0l4.050 4.082c32.022 29.049 85.305 6.814 85.305-38.224v0-512c0-97.865-168.759-136.13-272.976-99.504-19.745 6.939-35.92 13.346-61.163 24.272v0l-52.612 23.221c-48.132 21.259-75.773 32.283-103.015 40.125v0l-13.681 3.689c-21.618 5.452-41.323 8.196-59.753 8.196-50.811 0-101.909-10.816-153.58-32.711l-0.020-223.289c0-28.277-22.923-51.2-51.2-51.2-26.257 0-47.898 19.765-50.856 45.229l-0.344 5.971v921.6c0 28.277 22.923 51.2 51.2 51.2zM204.8 773.172v-453.222l20.302 6.328c37.915 11.017 75.998 17.345 114.192 18.928v0l19.106 0.396c27.439 0 55.417-3.897 84.794-11.305 36.586-9.227 66.668-20.426 119.612-43.541v0l55.857-24.683c20.092-8.796 33.961-14.596 47.062-19.6v0l16.85-6.168c24.875-8.742 65.954-9.447 101.131-1.47 15.957 3.618 28.79 8.64 36.141 13.613l-0.648-0.337v407.296l-3.037-1.246c-65.293-24.866-148.084-26.861-247.047-7.625v0l-16.643 3.402c-118.795 25.456-231.516 63.635-338.082 114.524v0l-9.59 4.711z" />
<glyph unicode="&#xe91c;" glyph-name="notepad" d="M204.8 908.8v-102.4h-51.2c-26.257 0-47.898-19.765-50.856-45.229l-0.344-5.971v-665.6c0-26.257 19.765-47.898 45.229-50.856l5.971-0.344h716.8c26.257 0 47.898 19.765 50.856 45.229l0.344 5.971v665.6c0 26.257-19.765 47.898-45.229 50.856l-5.971 0.344h-51.2v102.4h51.2c81.801 0 148.667-63.945 153.339-144.575l0.261-9.025v-665.6c0-81.801-63.945-148.667-144.575-153.339l-9.025-0.261h-716.8c-81.801 0-148.667 63.945-153.339 144.575l-0.261 9.025v665.6c0 81.801 63.945 148.667 144.575 153.339l9.025 0.261h51.2zM409.6 243.2c28.277 0 51.2-22.923 51.2-51.2 0-26.257-19.765-47.898-45.229-50.856l-5.971-0.344h-153.6c-28.277 0-51.2 22.923-51.2 51.2 0 26.257 19.765 47.898 45.229 50.856l5.971 0.344h153.6zM665.6 448c28.277 0 51.2-22.923 51.2-51.2 0-26.257-19.765-47.898-45.229-50.856l-5.971-0.344h-409.6c-28.277 0-51.2 22.923-51.2 51.2 0 26.257 19.765 47.898 45.229 50.856l5.971 0.344h409.6zM768 652.8c28.277 0 51.2-22.923 51.2-51.2 0-26.257-19.765-47.898-45.229-50.856l-5.971-0.344h-512c-28.277 0-51.2 22.923-51.2 51.2 0 26.257 19.765 47.898 45.229 50.856l5.971 0.344h512zM307.2 960c26.257 0 47.898-19.765 50.856-45.229l0.344-5.971v-102.4c0-28.277-22.923-51.2-51.2-51.2-26.257 0-47.898 19.765-50.856 45.229l-0.344 5.971v102.4c0 28.277 22.923 51.2 51.2 51.2zM716.8 960c26.257 0 47.898-19.765 50.856-45.229l0.344-5.971v-102.4c0-28.277-22.923-51.2-51.2-51.2-26.257 0-47.898 19.765-50.856 45.229l-0.344 5.971v102.4c0 28.277 22.923 51.2 51.2 51.2zM614.4 908.8v-102.4h-204.8v102.4h204.8z" />
<glyph unicode="&#xe91d;" glyph-name="file-upload" d="M102.4 601.6h204.8c26.257 0 47.898 19.765 50.856 45.229l0.344 5.971v204.8h-4.403l-251.597-251.597v-4.403zM102.4 89.6c0-26.257 19.765-47.898 45.229-50.856l5.971-0.344h307.2v285.952l-66.196-66.156c-19.995-19.995-52.413-19.995-72.408 0-18.457 18.457-19.877 47.499-4.259 67.584l4.259 4.823 153.6 153.6 4.181 3.748c0.148 0.119 0.296 0.236 0.445 0.353l-4.626-4.101c1.812 1.812 3.726 3.46 5.724 4.944 1.238 0.914 2.51 1.772 3.822 2.574 0.617 0.382 1.242 0.746 1.874 1.095 1.012 0.557 2.057 1.090 3.121 1.588 0.87 0.408 1.756 0.791 2.65 1.148 1.012 0.405 2.024 0.773 3.052 1.11 0.762 0.247 1.55 0.484 2.342 0.702 1.104 0.308 2.214 0.574 3.338 0.803 0.892 0.177 1.784 0.335 2.679 0.468 0.971 0.149 1.977 0.269 2.992 0.359 0.555 0.048 1.071 0.086 1.587 0.116l2.041 0.080c0.327 0.006 0.654 0.009 0.982 0.009l0.973-0.051 2.050-0.038c0.516-0.030 1.032-0.068 1.547-0.114l-4.57 0.203c2.592 0 5.139-0.193 7.627-0.564 0.87-0.134 1.762-0.291 2.65-0.472 1.127-0.225 2.238-0.491 3.334-0.793 0.8-0.224 1.588-0.461 2.371-0.718 1.006-0.327 2.019-0.695 3.016-1.094 0.908-0.363 1.794-0.746 2.671-1.156 1.058-0.497 2.103-1.030 3.126-1.598 0.62-0.339 1.246-0.703 1.865-1.081 1.309-0.805 2.582-1.664 3.812-2.576 0.31-0.225 0.61-0.454 0.908-0.686 0.346-0.275 0.495-0.393 0.643-0.511l4.181-3.748 153.6-153.6c19.995-19.995 19.995-52.413 0-72.408-18.457-18.457-47.499-19.877-67.584-4.259l-4.823 4.259-66.196 66.156v-337.152c0-26.257-19.765-47.898-45.229-50.856l-5.971-0.344h-358.4c-81.801 0-148.667 63.945-153.339 144.575l-0.261 9.025v537.6c0 11.316 3.746 22.246 10.551 31.131l4.445 5.073 281.6 281.6c8.002 8.002 18.379 13.081 29.474 14.552l6.73 0.444h537.6c81.801 0 148.667-63.945 153.339-144.575l0.261-9.025v-716.8c0-81.801-63.945-148.667-144.575-153.339l-9.025-0.261h-153.6c-28.277 0-51.2 22.923-51.2 51.2 0 26.257 19.765 47.898 45.229 50.856l5.971 0.344h153.6c26.257 0 47.898 19.765 50.856 45.229l0.344 5.971v716.8c0 26.257-19.765 47.898-45.229 50.856l-5.971 0.344h-409.6v-204.8c0-81.801-63.945-148.667-144.575-153.339l-9.025-0.261h-204.8v-409.6z" />
<glyph unicode="&#xe91e;" glyph-name="lightbulb" d="M674.217 72.963c13.455-0.582-19.734-50.209-22.425-54.284-12.829-24.62-35.229-46.676-65.033-64.035-27.463-14.484-62.926-20.962-97.998-17.901-33.709 4.346-63.791 16.567-84.543 34.346-32.866 27.044-52.618 59.741-56.916 93.953l-0.716 7.92h2.018c108.469 3.565 217.146 3.565 325.615 0zM617.696 946.212c261.519-71.103 331.824-367.501 138.802-532.397-58.015-87.401-72.396-145.862-79.083-245.087-0.266-14.462-12.385-26.362-28.148-28.442l-4.383-0.319h-269.652c-17.806 0.339-32.149 13.019-32.532 28.761-6.145 89.478-3.15 164.237-67.491 238.855-49.34 57.362-96.149 102.9-111.692 177.039-47.894 228.649 200.070 430.775 454.179 361.589zM542.15 733.701c27.542-32.268 36.373-74.087 23.857-112.967-7.126 13.877-17.762 26.122-31.086 35.791-61.81 42.822-151.995 23.328-153.080-54.007-1.084-69.346 75.546-101.143 141.152-86.283-4.493-37.668-11.799-75.032-21.869-111.848-7.952-30.678 45.364-43.781 54.22-13.102 11.205 42.822 30.001 102.9 29.64 157.706 56.931 54.806 53.677 151.155 5.060 209.475-20.784 25.246-68.859 0.799-47.894-24.766zM455.218 633.517v-0.639c12.109 4.314 45.002-14.061 52.774-21.89 11.549-11.817 17.957-26.886 18.073-42.502-10.664-6.393-23.262-9.79-36.146-9.747-35.785 0.799-85.305 56.883-34.701 74.779z" />
<glyph unicode="&#xe91f;" glyph-name="apps" d="M979.060 242.791c12.97-28.437 2.456-63.017-23.484-77.236l-396.608-217.4c-29.567-16.207-64.369-16.207-93.936 0l-396.608 217.4c-25.94 14.219-36.454 48.798-23.484 77.236s44.512 39.964 70.452 25.745l396.608-217.4 396.608 217.4c25.94 14.219 57.482 2.692 70.452-25.745zM979.060 473.064c12.97-28.437 2.456-63.017-23.484-77.236l-396.608-217.4c-29.567-16.207-64.369-16.207-93.936 0l-396.608 217.4c-25.94 14.219-36.454 48.798-23.484 77.236s44.512 39.964 70.452 25.745l396.608-217.4 396.608 217.4c25.94 14.219 57.482 2.692 70.452-25.745zM554.654 950.078l343.309-167.274c23.76-11.577 42.758-32.404 53.317-58.451 23.557-58.107-0.314-126.148-53.317-151.974l-343.309-167.274c-27.155-13.231-58.152-13.231-85.308 0l-343.309 167.274c-23.76 11.577-42.758 32.404-53.317 58.451-23.557 58.107 0.314 126.148 53.317 151.974l343.309 167.274c27.155 13.231 58.152 13.231 85.308 0z" />
<glyph unicode="&#xe920;" glyph-name="star-filled" d="M334.793 644.688l-288.882-41.727-6.093-1.22c-39.391-10.177-53.858-60.218-23.587-89.534l208.992-202.402-49.305-285.886-0.698-5.859c-2.645-40.508 40.898-69.819 78.401-50.23l258.379 134.948 258.379-134.948 5.393-2.47c37.959-15.017 79.472 17.070 72.31 58.559l-49.359 285.886 209.046 202.402 4.208 4.545c25.847 31.237 7.946 80.17-33.887 86.209l-288.936 41.727-129.131 260.052c-19.644 39.546-76.402 39.546-96.046 0l-129.184-260.052z" />
<glyph unicode="&#xe921;" glyph-name="livesheet" d="M870.4 960c81.801 0 148.667-63.945 153.339-144.575l0.261-9.025v-716.8c0-81.801-63.945-148.667-144.575-153.339l-9.025-0.261h-716.8c-81.801 0-148.667 63.945-153.339 144.575l-0.261 9.025v537.6c0 11.316 3.746 22.246 10.551 31.131l4.445 5.073 281.6 281.6c8.002 8.002 18.379 13.081 29.474 14.552l6.73 0.444h537.6zM614.4 243.2h-512v-153.6c0-26.257 19.765-47.898 45.229-50.856l5.971-0.344h460.8v204.8zM921.6 243.2h-204.8v-204.8h153.6c26.257 0 47.898 19.765 50.856 45.229l0.344 5.971v153.6zM614.4 550.4l-192.752-0.045c-26.25-29.306-63.591-48.47-105.423-50.894l-9.025-0.261h-204.8v-153.6h512v204.8zM921.6 550.4h-204.8v-204.8h204.8v204.8zM358.4 857.6h-4.403l-251.597-251.597v-4.403h204.8c26.257 0 47.898 19.765 50.856 45.229l0.344 5.971v204.8zM614.4 857.6h-153.6v-204.8h153.6v204.8zM870.4 857.6h-153.6v-204.8h204.8v153.6c0 26.257-19.765 47.898-45.229 50.856l-5.971 0.344z" />
<glyph unicode="&#xe922;" glyph-name="dialogue" d="M614.4 960c84.831 0 153.6-68.769 153.6-153.6v0-102.4h102.4l9.025-0.261c80.63-4.672 144.575-71.538 144.575-153.339v0-563.2l-0.326-5.895c-3.873-34.656-41.52-56.025-73.771-39.9v0l-193.935 96.995-355.393 0.261c-80.63 4.672-144.575 71.538-144.575 153.339v0 96.358l-181.903-90.953c-30.354-15.177-65.487 2.859-72.745 33.927l-1.026 5.973-0.326 5.895v563.2c0 84.831 68.769 153.6 153.6 153.6v0zM870.4 601.6h-102.4v-153.6c0-81.801-63.945-148.667-144.575-153.339l-9.025-0.261h-256v-102.4l0.344-5.971c2.958-25.464 24.598-45.229 50.856-45.229v0l364.331-0.345c5.891-0.687 11.634-2.395 16.966-5.061v0l130.703-65.302v480.307l-0.344 5.971c-2.958 25.464-24.598 45.229-50.856 45.229v0zM614.4 857.6h-460.8c-28.277 0-51.2-22.923-51.2-51.2v0-480.307l130.703 65.302c5.332 2.666 11.075 4.374 16.966 5.061v0l5.931 0.345h358.4c28.277 0 51.2 22.923 51.2 51.2v0 358.4c0 28.277-22.923 51.2-51.2 51.2v0zM460.8 601.6c28.277 0 51.2-22.923 51.2-51.2 0-26.257-19.765-47.898-45.229-50.856l-5.971-0.344h-204.8c-28.277 0-51.2 22.923-51.2 51.2 0 26.257 19.765 47.898 45.229 50.856l5.971 0.344h204.8zM512 755.2c28.277 0 51.2-22.923 51.2-51.2 0-26.257-19.765-47.898-45.229-50.856l-5.971-0.344h-256c-28.277 0-51.2 22.923-51.2 51.2 0 26.257 19.765 47.898 45.229 50.856l5.971 0.344h256z" />
<glyph unicode="&#xe923;" glyph-name="info-solid" d="M512 959.893c282.331 0 512-229.669 512-512s-229.669-512-512-512c-282.331 0-512 229.669-512 512s229.669 512 512 512zM594.196 578.333h-128.267l-60.46-285.652c-2.315-11.308-4.052-21.816-5.209-31.521s-1.736-18.61-1.736-26.758c0-18.833 2.449-34.905 7.391-48.262s11.665-24.353 20.213-33.035c8.548-8.682 18.655-15.093 30.23-19.144 11.576-4.007 24.042-6.055 37.398-6.055 11.576 0 23.018 1.825 34.326 5.432s21.459 9.216 30.453 16.74c8.949 7.524 16.428 17.052 22.394 28.449 5.921 11.442 9.483 25.155 10.641 41.094-3.206-1.425-6.678-2.716-10.418-3.918-3.784-1.158-9.884-1.736-18.298-1.736-12.422 0-21.548 2.404-27.381 7.168-5.788 4.808-8.682 13.401-8.682 25.867 0 4.675 0.223 9.35 0.668 14.158 0.401 4.764 1.336 9.661 2.805 14.559l63.933 302.614zM554.171 767.911c-9.839 0-19.055-1.87-27.603-5.654s-16.028-8.949-22.394-15.449c-6.367-6.5-11.353-14.024-15.004-22.617-3.606-8.548-5.432-17.72-5.432-27.603s1.825-19.055 5.432-27.604c3.651-8.548 8.637-15.939 15.004-22.172s13.846-11.175 22.394-14.781c8.548-3.606 17.764-5.432 27.603-5.432s19.055 1.825 27.604 5.432c8.548 3.606 16.117 8.548 22.617 14.781s11.665 13.624 15.449 22.172c3.74 8.548 5.654 17.72 5.654 27.604s-1.914 19.055-5.654 27.603c-3.784 8.593-8.949 16.117-15.449 22.617s-14.069 11.665-22.617 15.449c-8.548 3.784-17.764 5.654-27.604 5.654z" />
<glyph unicode="&#xe924;" glyph-name="visibility" d="M512 857.6c277.416 0 512-234.584 512-409.6s-234.584-409.6-512-409.6c-277.416 0-512 234.584-512 409.6s234.584 409.6 512 409.6zM512 755.2c-220.862 0-409.6-188.738-409.6-307.2s188.738-307.2 409.6-307.2c220.862 0 409.6 188.738 409.6 307.2s-188.738 307.2-409.6 307.2zM512 652.8c113.108 0 204.8-91.692 204.8-204.8s-91.692-204.8-204.8-204.8c-113.108 0-204.8 91.692-204.8 204.8s91.692 204.8 204.8 204.8zM512 550.4c-56.554 0-102.4-45.846-102.4-102.4s45.846-102.4 102.4-102.4c56.554 0 102.4 45.846 102.4 102.4s-45.846 102.4-102.4 102.4z" />
<glyph unicode="&#xe925;" glyph-name="info" d="M512 960c282.77 0 512-229.23 512-512s-229.23-512-512-512c-282.77 0-512 229.23-512 512s229.23 512 512 512zM512 857.6c-226.216 0-409.6-183.384-409.6-409.6s183.384-409.6 409.6-409.6c226.216 0 409.6 183.384 409.6 409.6s-183.384 409.6-409.6 409.6zM586.159 573.206l-57.688-290.508c-1.326-4.701-2.169-9.403-2.531-13.976-0.402-4.616-0.603-9.104-0.603-13.592 0-11.967 2.611-20.216 7.834-24.832 5.263-4.573 13.498-6.881 24.706-6.881 7.593 0 13.096 0.556 16.511 1.667 3.374 1.154 6.508 2.393 9.4 3.761-1.044-15.301-4.258-28.465-9.601-39.45-5.383-10.942-12.132-20.088-20.207-27.311-8.115-7.223-17.274-12.608-27.478-16.070s-20.528-5.214-30.973-5.214c-12.052 0-23.3 1.966-33.745 5.813-10.445 3.889-19.564 10.044-27.277 18.378s-13.779 18.891-18.238 31.713c-4.459 12.822-6.669 28.252-6.669 46.331 0 7.822 0.522 16.37 1.567 25.687 0.696 6.212 1.625 12.765 2.785 19.661l1.915 10.6 54.554 274.224h115.737zM550.043 755.2c8.878 0 17.194-1.795 24.907-5.428s14.542-8.591 20.408-14.831c5.865-6.24 10.525-13.463 13.94-21.712 3.374-8.206 5.102-17.011 5.102-26.499s-1.727-18.293-5.102-26.499c-3.415-8.206-8.075-15.301-13.94-21.285s-12.695-10.728-20.408-14.19c-7.713-3.462-16.029-5.214-24.907-5.214s-17.194 1.752-24.907 5.214c-7.713 3.462-14.462 8.206-20.207 14.19s-10.244 13.079-13.538 21.285c-3.254 8.206-4.901 17.011-4.901 26.499s1.647 18.293 4.901 26.499c3.294 8.249 7.794 15.472 13.538 21.712s12.494 11.198 20.207 14.831c7.713 3.633 16.029 5.428 24.907 5.428z" />
<glyph unicode="&#xe926;" glyph-name="task" d="M870.4 960c84.831 0 153.6-68.769 153.6-153.6v0-716.8c0-84.831-68.769-153.6-153.6-153.6v0h-716.8c-84.831 0-153.6 68.769-153.6 153.6v0 716.8c0 84.831 68.769 153.6 153.6 153.6v0zM870.4 857.6h-716.8c-28.277 0-51.2-22.923-51.2-51.2v0-716.8c0-28.277 22.923-51.2 51.2-51.2v0h716.8c28.277 0 51.2 22.923 51.2 51.2v0 716.8c0 28.277-22.923 51.2-51.2 51.2v0zM803.013 430.771l4.466-3.979c18.567-18.567 19.893-47.845 3.979-67.942l-3.979-4.466-217.223-217.223c-18.567-18.567-47.845-19.893-67.942-3.979l-4.466 3.979-108.612 108.612c-19.995 19.995-19.995 52.413 0 72.408 18.567 18.567 47.845 19.893 67.942 3.979l4.466-3.979 72.408-72.337 181.019 180.948c18.567 18.567 47.845 19.893 67.942 3.979zM512 550.4c28.277 0 51.2-22.923 51.2-51.2 0-26.257-19.765-47.898-45.229-50.856l-5.971-0.344h-256c-28.277 0-51.2 22.923-51.2 51.2 0 26.257 19.765 47.898 45.229 50.856l5.971 0.344h256zM768 755.2c28.277 0 51.2-22.923 51.2-51.2 0-26.257-19.765-47.898-45.229-50.856l-5.971-0.344h-512c-28.277 0-51.2 22.923-51.2 51.2 0 26.257 19.765 47.898 45.229 50.856l5.971 0.344h512z" />
<glyph unicode="&#xe927;" glyph-name="linked" d="M622.978 561.931c108.774-108.734 109.863-281.34 3.203-387.961l-158.464-158.406c-106.099-106.122-278.762-106.103-385.128 0.164l-2.955 3.007c-106.179 106.080-106.179 278.685-0.006 384.82l158.414 158.357c2.24 2.239 3.811 3.506 6.834 5.764 1.289 0.978 1.149 0.868 1.088 0.812 13.809 12.818 24.166 22.431 31.070 28.84 6.288 5.837-5.63-27.257-5.63-73.987s11.387-71.885 8.836-74.436c-27.333-27.334-68.332-68.336-122.998-123.005-63.32-63.25-63.32-166.309 0.007-229.566l3.191-3.19c63.273-63.297 166.369-63.297 229.649 0.007l158.469 158.412c63.275 63.252 63.275 166.322-0.022 229.595-19.788 19.826-43.902 33.831-71.385 42.183-4.931 6.399-0.356 24.033 13.725 52.902s23.432 45.423 28.053 49.661c39.722-13.661 74.939-34.935 104.047-63.973zM941.616 880.425c108.759-108.719 109.848-281.321 3.186-388.006l-158.466-158.353c-2.263-2.262-3.884-3.573-6.962-5.882-1.423-1.083-1.325-1.005-1.309-0.991-10.673-9.941-18.677-17.398-24.014-22.368-3.947-3.677-9.252-8.618-15.915-14.825-3.022-2.815 13.395 31.708 13.395 81.948s-8.529 73.985 0 82.511c25.701 25.692 64.252 64.229 115.654 115.612 63.275 63.252 63.275 166.322 0 229.573-66.090 66.066-169.152 66.903-232.892 3.186l-158.425-158.422c-63.32-63.25-63.32-166.309 0.175-229.735l2.961-3.013c18.554-18.547 41.548-31.754 68.030-39.711 10.021-0.576 7.782-17.786-6.717-51.629s-26.114-50.579-34.843-50.205c-39.694 13.616-74.968 34.899-104.259 64.122l-2.955 3.007c-106.18 106.081-106.18 278.69-0.009 384.761l158.418 158.415c106.154 106.115 278.758 106.097 384.948 0.006z" />
<glyph unicode="&#xe928;" glyph-name="unlinked" d="M567.967 270.963l77.621-77.593-177.87-177.806c-106.099-106.122-278.762-106.103-385.127 0.164l-2.955 3.007c-106.179 106.080-106.179 278.685-0.006 384.82l179.216 179.151 72.921-83.775-18.677-18.095c-19.404-18.8-30.185-29.268-31.396-30.478l-124.45-124.457c-63.32-63.25-63.32-166.309 0.007-229.566l3.191-3.19c63.273-63.297 166.369-63.297 229.649 0.007l177.876 177.812zM556.664 880.418c106.157 106.119 278.761 106.1 384.957 0.003 108.753-108.714 109.843-281.315 3.18-388l-177.964-177.838-76.995 77.663 52.183 52.714 125.157 125.112c63.274 63.252 63.274 166.322 0 229.573-66.090 66.066-169.152 66.903-232.892 3.186l-177.821-177.818-77.621 77.593 177.814 177.812z" />
<glyph unicode="&#xe929;" glyph-name="open" d="M819.2 960l10.222-0.251c108.359-5.326 194.578-94.869 194.578-204.549v0-409.6l-0.251-10.222c-5.326-108.359-94.869-194.578-204.549-194.578v0l-0.251-10.222c-5.326-108.359-94.869-194.578-204.549-194.578v0l-419.822 0.251c-108.359 5.326-194.578 94.869-194.578 204.549v0 409.6l0.251 10.222c5.326 108.359 94.869 194.578 204.549 194.578v0l0.251 10.222c5.326 108.359 94.869 194.578 204.549 194.578v0h409.6zM204.8 652.8l-7.642-0.281c-52.985-3.909-94.758-48.136-94.758-102.119v0-409.6l0.281-7.642c3.909-52.985 48.136-94.758 102.119-94.758v0l417.242 0.281c52.985 3.909 94.758 48.136 94.758 102.119v0l-317.422 0.251c-108.359 5.326-194.578 94.869-194.578 204.549v0 307.2zM819.2 857.6l-417.242-0.281c-52.985-3.909-94.758-48.136-94.758-102.119v0-409.6l0.281-7.642c3.909-52.985 48.136-94.758 102.119-94.758v0h409.6c56.554 0 102.4 45.846 102.4 102.4v0 409.6l-0.281 7.642c-3.909 52.985-48.136 94.758-102.119 94.758v0zM768 755.2c18.696 0 33.566-9.264 42.386-22.42 0.433-0.686 0.877-1.374 1.305-2.073 1.559-2.554 2.883-5.236 3.974-8.011 0.364-0.89 0.685-1.782 0.982-2.685 2.018-6.1 2.935-12.602 2.582-19.117l-0.029-201.694c0-28.277-22.923-51.2-51.2-51.2-26.257 0-47.898 19.765-50.856 45.229l-0.344 5.971v81.203l-168.596-168.607c-19.995-19.995-52.413-19.995-72.408 0-18.457 18.457-19.877 47.499-4.259 67.584l4.259 4.823 168.505 168.596h-81.101c-26.257 0-47.898 19.765-50.856 45.229l-0.344 5.971c0 26.257 19.765 47.898 45.229 50.856l5.971 0.344h204.8z" />
<glyph unicode="&#xe92a;" glyph-name="guided-conversation" d="M307.2 243.2c56.554 0 102.4-45.846 102.4-102.4v0-102.4c0-56.554-45.846-102.4-102.4-102.4v0h-204.8c-56.554 0-102.4 45.846-102.4 102.4v0 102.4c0 56.554 45.846 102.4 102.4 102.4v0zM921.6 243.2c56.554 0 102.4-45.846 102.4-102.4v0-102.4c0-56.554-45.846-102.4-102.4-102.4v0h-204.8c-56.554 0-102.4 45.846-102.4 102.4v0 102.4c0 56.554 45.846 102.4 102.4 102.4v0zM307.2 140.8h-204.8v-102.4h204.8v102.4zM921.6 140.8h-204.8v-102.4h204.8v102.4zM256 396.8v-51.2c0-26.257-19.765-47.898-45.229-50.856l-5.971-0.344c-26.257 0-47.898 19.765-50.856 45.229l-0.344 5.971v102.4c0 26.257 19.765 47.898 45.229 50.856l5.971 0.344h256v153.6h-51.2c-56.554 0-102.4 45.846-102.4 102.4v0 102.4c0 56.554 45.846 102.4 102.4 102.4v0h204.8c56.554 0 102.4-45.846 102.4-102.4v0-102.4c0-56.554-45.846-102.4-102.4-102.4v0h-51.2v-153.6h256c26.257 0 47.898-19.765 50.856-45.229l0.344-5.971v-102.4c0-28.277-22.923-51.2-51.2-51.2-26.257 0-47.898 19.765-50.856 45.229l-0.344 5.971v51.2h-512zM614.4 857.6h-204.8v-102.4h204.8v102.4z" />
<glyph unicode="&#xe92b;" glyph-name="livepage" d="M870.4 960c81.801 0 148.667-63.945 153.339-144.575l0.261-9.025v-102.4c0-28.277-22.923-51.2-51.2-51.2-26.257 0-47.898 19.765-50.856 45.229l-0.344 5.971v102.4c0 26.257-19.765 47.898-45.229 50.856l-5.971 0.344h-409.6v-204.8c0-81.801-63.945-148.667-144.575-153.339l-9.025-0.261h-204.8v-409.6c0-26.257 19.765-47.898 45.229-50.856l5.971-0.344h102.4c28.277 0 51.2-22.923 51.2-51.2 0-26.257-19.765-47.898-45.229-50.856l-5.971-0.344h-102.4c-81.801 0-148.667 63.945-153.339 144.575l-0.261 9.025v541.992c0 24.141 8.524 47.402 23.906 65.761l6.086 6.647 226.008 226.008c17.070 17.070 39.546 27.491 63.404 29.596l9.004 0.396h541.992zM782.606 358.413c77.556-77.556 79.906-201.838 7.051-282.226l-7.051-7.405-72.408-72.408c-79.979-79.979-209.652-79.979-289.631 0s-79.979 209.652 0 289.631c19.995 19.995 52.413 19.995 72.408 0 18.567-18.567 19.893-47.845 3.979-67.942l-3.979-4.466c-39.99-39.99-39.99-104.826 0-144.815 38.172-38.172 98.983-39.907 139.213-5.205l5.602 5.205 72.408 72.408c39.99 39.99 39.99 104.826 0 144.815-19.995 19.995-19.995 52.413 0 72.408s52.413 19.995 72.408 0zM963.626 539.432c79.979-79.979 79.979-209.652 0-289.631-19.995-19.995-52.413-19.995-72.408 0-18.567 18.567-19.893 47.845-3.979 67.942l3.979 4.466c39.99 39.99 39.99 104.826 0 144.815-38.172 38.172-98.983 39.907-139.213 5.205l-5.602-5.205-72.408-72.408c-39.99-39.99-39.99-104.826 0-144.815 19.995-19.995 19.995-52.413 0-72.408s-52.413-19.995-72.408 0c-77.556 77.556-79.906 201.838-7.050 282.226l7.050 7.405 72.408 72.408c79.979 79.979 209.652 79.979 289.631 0zM358.4 857.6h-29.992l-226.008-226.008v-29.992h204.8c26.257 0 47.898 19.765 50.856 45.229l0.344 5.971v204.8z" />
<glyph unicode="&#xe92c;" glyph-name="bounding-box" d="M230.372-12.85c-23.355-31.062-60.517-51.15-102.372-51.15-70.692 0-128 57.308-128 128 0 41.878 20.111 79.059 51.202 102.411v563.178c-31.091 23.352-51.202 60.533-51.202 102.411 0 70.692 57.308 128 128 128 41.878 0 79.059-20.111 102.411-51.202h563.178c23.352 31.091 60.533 51.202 102.411 51.202 70.692 0 128-57.308 128-128 0-41.855-20.089-79.017-51.15-102.372v-563.256c31.062-23.355 51.15-60.517 51.15-102.372 0-70.692-57.308-128-128-128-41.855 0-79.017 20.089-102.372 51.15zM773.869 793.571h-523.738c-12.506-39.785-43.916-71.195-83.702-83.702v-523.738c39.802-12.512 71.222-43.943 83.718-83.752h523.706c12.501 39.826 43.942 71.268 83.768 83.768v523.706c-39.809 12.496-71.241 43.915-83.752 83.718z" />
<glyph unicode="&#xe92d;" glyph-name="code" d="M630.591 803.772c24.91-8.303 39.19-33.898 33.943-58.99l-1.562-5.774-204.8-614.4c-8.942-26.826-37.937-41.324-64.763-32.382-24.91 8.303-39.19 33.898-33.943 58.99l1.562 5.774 204.8 614.4c8.942 26.826 37.937 41.324 64.763 32.382zM296.96 632.319c15.661-20.882 12.959-49.832-5.342-67.507l-4.899-4.173-150.17-112.64 150.17-112.64c20.882-15.661 26.394-44.211 13.775-66.303l-3.534-5.377c-15.661-20.882-44.211-26.394-66.303-13.775l-5.377 3.534-204.8 153.6c-25.486 19.115-27.185 56.070-5.097 77.563l5.097 4.357 204.8 153.6c22.622 16.966 54.714 12.382 71.68-10.24zM793.343 646.094l5.377-3.534 204.8-153.6c25.486-19.115 27.185-56.070 5.097-77.563l-5.097-4.357-204.8-153.6c-22.622-16.966-54.714-12.382-71.68 10.24-15.661 20.882-12.959 49.832 5.342 67.507l4.899 4.173 150.17 112.64-150.17 112.64c-20.882 15.661-26.394 44.211-13.775 66.303l3.534 5.377c15.661 20.882 44.211 26.394 66.303 13.775z" />
<glyph unicode="&#xe92e;" glyph-name="filter-KB" d="M576.001 192.001c35.352 0 64.005-28.653 64.005-64.005s-28.653-64.005-64.005-64.005v0h-127.995c-35.352 0-64.005 28.653-64.005 64.005s28.653 64.005 64.005 64.005v0zM768.001 512.009c35.352 0 64.005-28.653 64.005-64.005s-28.653-64.005-64.005-64.005v0h-512.001c-35.352 0-64.005 28.653-64.005 64.005s28.653 64.005 64.005 64.005v0zM960.001 832.006c35.352 0 64.005-28.653 64.005-64.005s-28.653-64.005-64.005-64.005v0h-896.003c-35.352 0-64.005 28.653-64.005 64.005s28.653 64.005 64.005 64.005v0z" />
<glyph unicode="&#xe92f;" glyph-name="find-and-replace" d="M870.4 345.6c84.831 0 153.6-68.769 153.6-153.6v-102.4c0-84.831-68.769-153.6-153.6-153.6h-102.4c-84.831 0-153.6 68.769-153.6 153.6v102.4c0 84.831 68.769 153.6 153.6 153.6h102.4zM870.4 243.2h-102.4c-28.277 0-51.2-22.923-51.2-51.2v-102.4c0-28.277 22.923-51.2 51.2-51.2h102.4c28.277 0 51.2 22.923 51.2 51.2v102.4c0 28.277-22.923 51.2-51.2 51.2zM222.683 495.988l1.399-0.552c0.827-0.336 1.647-0.693 2.458-1.072 0.276-0.125 0.527-0.245 0.777-0.368 2.119-1.057 4.028-2.157 5.884-3.395l-3.88 2.357c0.691-0.376 1.374-0.768 2.048-1.177 0.288-0.181 0.584-0.365 0.879-0.552l0.553-0.374 0.4-0.253 153.6-102.4c23.528-15.685 29.886-47.474 14.2-71.002s-47.474-29.886-71.002-14.2v0l-74.005 49.308 0.005-211.507h256c28.277 0 51.2-22.923 51.2-51.2s-22.923-51.2-51.2-51.2v0h-307.2c-28.277 0-51.2 22.923-51.2 51.2v0l-0.005 262.758-73.994-49.359c-21.847-14.565-50.817-10.123-67.403 9.423l-3.599 4.777c-15.685 23.528-9.328 55.316 14.2 71.002v0l153.6 102.4c0.2 0.133 0.4 0.265 0.601 0.395 0.106 0.076 0.229 0.155 0.352 0.233l0.566 0.361c0.941 0.579 1.898 1.127 2.871 1.642 0.366 0.188 0.745 0.384 1.125 0.574 0.122 0.068 0.246 0.129 0.37 0.19l0.673 0.319c0.878 0.413 1.766 0.8 2.663 1.162 0.427 0.179 0.862 0.348 1.298 0.511l0.615 0.227 0.855 0.286c0.796 0.269 1.599 0.518 2.407 0.747 0.616 0.189 1.249 0.356 1.884 0.511 0.138 0.031 0.26 0.060 0.383 0.089l0.972 0.207c0.678 0.146 1.359 0.278 2.043 0.396 0.638 0.123 1.291 0.223 1.945 0.31l0.808 0.095 0.666 0.070c0.917 0.096 1.837 0.167 2.759 0.214 0.481 0.028 0.943 0.044 1.404 0.054h2.282c0.376-0.008 0.752-0.020 1.128-0.037 1.028-0.051 2.033-0.127 3.035-0.231 0.227-0.021 0.447-0.045 0.666-0.070 0.569-0.063 0.689-0.079 0.808-0.095l1.335-0.208c0.906-0.146 1.808-0.315 2.705-0.509 0.319-0.058 0.62-0.126 0.921-0.196 0.949-0.227 1.513-0.375 2.076-0.533 0.898-0.264 1.803-0.544 2.701-0.85l-0.001 0.012 1.367-0.49zM819.2 857.6c28.277 0 51.2-22.923 51.2-51.2v0l-0.005-262.656 74.005 49.257c21.847 14.565 50.817 10.123 67.403-9.423l3.599-4.777c15.685-23.528 9.328-55.316-14.2-71.002v0l-153.6-102.4c-0.118-0.078-0.235-0.156-0.354-0.234-0.5-0.335-0.991-0.645-1.489-0.947-0.251-0.158-0.514-0.313-0.777-0.467l-1.281-0.713c-0.6-0.328-1.204-0.642-1.811-0.944-0.281-0.146-0.602-0.301-0.925-0.453-0.355-0.161-0.687-0.312-1.020-0.459l-1.467-0.627c-0.463-0.189-0.928-0.37-1.394-0.544l-1.366-0.478c-0.345-0.117-0.691-0.231-1.037-0.34l-1.663-0.509c-0.563-0.158-1.127-0.306-1.693-0.443-0.438-0.104-0.861-0.201-1.286-0.293-0.914-0.187-1.815-0.356-2.721-0.502l0.026-0.003-1.362-0.204c-0.119-0.016-0.239-0.031-0.358-0.046-2.092-0.257-4.24-0.393-6.421-0.393l5.202 0.264c-0.866-0.089-1.735-0.156-2.606-0.201-0.566-0.033-1.113-0.051-1.66-0.060l-0.936-0.002c-0.328 0-0.655 0.003-0.982 0.009-0.518 0.003-1.082 0.022-1.647 0.050-0.065 0.010-0.082 0.011-0.099 0.012-0.808 0.041-1.642 0.107-2.475 0.192-0.266 0.024-0.518 0.052-0.769 0.081l-0.808 0.095-1.793 0.283c-0.752 0.128-1.501 0.272-2.247 0.434-0.442 0.084-0.865 0.181-1.287 0.283-0.102 0.023-0.187 0.044-0.272 0.065l-1.629 0.448c-0.808 0.229-1.61 0.479-2.407 0.747-0.287 0.085-0.572 0.184-0.855 0.286l-0.615 0.227-1.298 0.511c-0.898 0.362-1.786 0.749-2.663 1.162-0.364 0.167-0.705 0.333-1.044 0.503-1.878 0.948-3.72 2.016-5.513 3.211l4.185-2.522c-0.884 0.474-1.756 0.974-2.615 1.501-0.345 0.219-0.667 0.423-0.987 0.63l-0.584 0.391-153.6 102.4c-23.528 15.685-29.886 47.474-14.2 71.002s47.474 29.886 71.002 14.2v0l73.994-49.308 0.005 211.507h-256c-28.277 0-51.2 22.923-51.2 51.2s22.923 51.2 51.2 51.2v0zM256 960c84.831 0 153.6-68.769 153.6-153.6v-102.4c0-84.831-68.769-153.6-153.6-153.6h-102.4c-84.831 0-153.6 68.769-153.6 153.6v102.4c0 84.831 68.769 153.6 153.6 153.6h102.4zM256 857.6h-102.4c-28.277 0-51.2-22.923-51.2-51.2v-102.4c0-28.277 22.923-51.2 51.2-51.2h102.4c28.277 0 51.2 22.923 51.2 51.2v102.4c0 28.277-22.923 51.2-51.2 51.2z" />
<glyph unicode="&#xe930;" glyph-name="article" d="M870.4 960c81.801 0 148.667-63.945 153.339-144.575l0.261-9.025v-716.8c0-81.801-63.945-148.667-144.575-153.339l-9.025-0.261h-716.8c-81.801 0-148.667 63.945-153.339 144.575l-0.261 9.025v537.6c0 11.316 3.746 22.246 10.551 31.131l4.445 5.073 281.6 281.6c8.002 8.002 18.379 13.081 29.474 14.552l6.73 0.444h537.6zM870.4 857.6h-409.6v-204.8c0-81.801-63.945-148.667-144.575-153.339l-9.025-0.261h-204.8v-409.6c0-26.257 19.765-47.898 45.229-50.856l5.971-0.344h716.8c26.257 0 47.898 19.765 50.856 45.229l0.344 5.971v716.8c0 26.257-19.765 47.898-45.229 50.856l-5.971 0.344zM768 243.2c28.277 0 51.2-22.923 51.2-51.2 0-26.257-19.765-47.898-45.229-50.856l-5.971-0.344h-512c-28.277 0-51.2 22.923-51.2 51.2 0 26.257 19.765 47.898 45.229 50.856l5.971 0.344h512zM768 396.8c28.277 0 51.2-22.923 51.2-51.2 0-26.257-19.765-47.898-45.229-50.856l-5.971-0.344h-512c-28.277 0-51.2 22.923-51.2 51.2 0 26.257 19.765 47.898 45.229 50.856l5.971 0.344h512zM768 755.2c28.277 0 51.2-22.923 51.2-51.2v0-204.8c0-28.277-22.923-51.2-51.2-51.2v0h-204.8c-28.277 0-51.2 22.923-51.2 51.2v0 204.8c0 28.277 22.923 51.2 51.2 51.2v0zM716.8 652.8h-102.4v-102.4h102.4v102.4zM358.4 857.6h-4.403l-251.597-251.597v-4.403h204.8c26.257 0 47.898 19.765 50.856 45.229l0.344 5.971v204.8z" />
<glyph unicode="&#xe931;" glyph-name="action" horiz-adv-x="910" d="M885.832 528.432c23.204-3.14 32.665-30.030 16.091-45.732l-568.889-538.955c-20.625-19.54-55.23-0.515-47.555 26.145l100.322 348.492-361.347 48.905c-23.204 3.14-32.665 30.030-16.091 45.732l568.889 538.955c20.625 19.54 55.23 0.515 47.555-26.145l-100.322-348.492 361.347-48.905z" />
<glyph unicode="&#xe932;" glyph-name="inbound" d="M827.865 880.002c22.829 0 43.029-14.792 49.922-36.56l142.306-449.5c2.374-7.5 3.029-15.439 1.916-23.229l-44.36-309.771c-3.697-25.784-25.784-44.942-51.834-44.942h-827.633c-26.054 0-48.14 19.148-51.834 44.942l-44.36 309.771c-1.112 7.79-0.458 15.73 1.916 23.229l142.306 449.5c6.887 21.767 27.087 36.56 49.922 36.56h631.76zM688.006 736.005h-352.043c-20.831 0-39.192-13.681-45.158-33.639v0l-91.418-306.069c-2.672-8.96-2.623-18.514 0.14-27.45v0l11.991-38.661h108.241c20.242 0 38.224-12.932 44.675-32.114v0l41.991-124.978h211.115l41.991 124.978c6.452 19.192 24.434 32.114 44.675 32.114v0h108.241l11.991 38.661c2.773 8.936 2.823 18.49 0.14 27.45v0l-91.418 306.069c-5.966 19.958-24.326 33.639-45.158 33.639v0z" />
<glyph unicode="&#xe933;" glyph-name="app-store" d="M393.129 410.46c44.92 0 81.334-36.414 81.334-81.334v-287.795c0-44.92-36.414-81.334-81.334-81.334h-287.795c-44.92 0-81.334 36.414-81.334 81.334v287.795c0 44.92 36.414 81.334 81.334 81.334h287.795zM774.768 372.924c19.25 0 35.117-14.49 37.287-33.16l0.253-4.377-0.026-112.596 112.639-0.020c20.732 0 37.54-16.806 37.54-37.54 0-19.25-14.49-35.117-33.16-37.287l-4.377-0.253-112.639 0.026 0.026-112.639c0-20.732-16.806-37.54-37.54-37.54-19.25 0-35.117 14.49-37.287 33.16l-0.253 4.377-0.020 112.639-112.596-0.026c-20.732 0-37.54 16.806-37.54 37.54 0 19.25 14.49 35.117 33.16 37.287l4.377 0.253 112.596 0.020 0.020 112.596c0 20.732 16.806 37.54 37.54 37.54zM393.129 936c44.92 0 81.334-36.414 81.334-81.334v-287.795c0-44.92-36.414-81.334-81.334-81.334h-287.795c-44.92 0-81.334 36.414-81.334 81.334v287.795c0 44.92 36.414 81.334 81.334 81.334h287.795zM918.666 936c44.92 0 81.334-36.414 81.334-81.334v-287.795c0-44.92-36.414-81.334-81.334-81.334h-287.795c-44.92 0-81.334 36.414-81.334 81.334v287.795c0 44.92 36.414 81.334 81.334 81.334h287.795z" />
<glyph unicode="&#xe934;" glyph-name="clock" d="M512 960c282.77 0 512-229.23 512-512s-229.23-512-512-512c-282.77 0-512 229.23-512 512s229.23 512 512 512zM512 857.6c-226.216 0-409.6-183.384-409.6-409.6s183.384-409.6 409.6-409.6c226.216 0 409.6 183.384 409.6 409.6s-183.384 409.6-409.6 409.6zM512 755.2c28.277 0 51.2-22.923 51.2-51.2v0-256h153.6c28.277 0 51.2-22.923 51.2-51.2s-22.923-51.2-51.2-51.2v0h-256v358.4c0 28.277 22.923 51.2 51.2 51.2z" />
<glyph unicode="&#xe935;" glyph-name="caret-up" d="M119.3 194.272c-22.651-22.651-59.385-22.651-82.041 0s-22.651 59.385 0 82.041l425.417 425.417c22.651 22.651 59.385 22.651 82.041 0l425.417-425.417c22.651-22.651 22.651-59.385 0-82.041s-59.385-22.651-82.041 0l-384.397 384.397-384.397-384.397z" />
<glyph unicode="&#xe936;" glyph-name="broadcast" d="M512 736.352c84.831 0 153.6-68.835 153.6-153.746 0-66.925-42.72-123.862-102.354-144.982l-0.046-450.375c0-28.304-22.923-51.249-51.2-51.249-26.257 0-47.898 19.784-50.856 45.272l-0.344 5.977 0.005 450.358c-59.66 21.105-102.405 78.056-102.405 145 0 84.912 68.769 153.746 153.6 153.746zM222.369 944.99c19.995-20.014 19.995-52.463 0-72.477-76.352-76.425-119.969-179.645-119.969-289.907s43.617-213.482 119.969-289.907c19.995-20.014 19.995-52.463 0-72.477s-52.413-20.014-72.408 0c-95.366 95.457-149.961 224.658-149.961 362.384s54.596 266.927 149.961 362.384c19.995 20.014 52.413 20.014 72.408 0zM874.039 944.99c95.366-95.457 149.961-224.658 149.961-362.384 0-68.139-13.319-134.508-38.867-196.179-25.763-62.19-63.591-118.657-111.094-166.204-19.995-20.014-52.413-20.014-72.408 0s-19.995 52.463 0 72.477c38.039 38.075 68.313 83.266 88.911 132.988 20.415 49.28 31.058 102.313 31.058 156.919 0 110.262-43.617 213.482-119.969 289.907-19.995 20.014-19.995 52.463 0 72.477s52.413 20.014 72.408 0zM349.083 808.784c19.995-20.014 19.995-52.463 0-72.477-21.406-21.426-38.438-46.851-50.021-74.812-11.478-27.706-17.461-57.522-17.461-88.261s5.983-60.555 17.461-88.261c11.583-27.961 28.616-53.386 50.021-74.812 19.995-20.014 19.995-52.463 0-72.477s-52.413-20.014-72.408 0c-30.87 30.899-55.455 67.599-72.204 108.028-16.611 40.098-25.271 83.249-25.271 127.521s8.66 87.423 25.271 127.521c16.749 40.43 41.334 77.129 72.204 108.028 19.995 20.014 52.413 20.014 72.408 0zM747.325 808.784c30.87-30.899 55.455-67.599 72.204-108.028 16.611-40.098 25.271-83.249 25.271-127.521s-8.66-87.424-25.271-127.521c-16.749-40.43-41.334-77.129-72.204-108.028-19.995-20.014-52.413-20.014-72.408 0s-19.995 52.463 0 72.477c21.406 21.426 38.438 46.851 50.021 74.812 11.478 27.706 17.461 57.522 17.461 88.261s-5.983 60.555-17.461 88.261c-11.583 27.961-28.616 53.386-50.021 74.812-19.995 20.014-19.995 52.463 0 72.477s52.413 20.014 72.408 0zM512 633.855c-28.277 0-51.2-22.945-51.2-51.249s22.923-51.249 51.2-51.249c28.277 0 51.2 22.945 51.2 51.249s-22.923 51.249-51.2 51.249z" />
<glyph unicode="&#xe937;" glyph-name="workflow" d="M614.4 243.2c56.554 0 102.4-45.846 102.4-102.4v0-102.4c0-56.554-45.846-102.4-102.4-102.4v0h-204.8c-56.554 0-102.4 45.846-102.4 102.4v0 102.4c0 56.554 45.846 102.4 102.4 102.4v0zM614.4 140.8h-204.8v-102.4h204.8v102.4zM204.8 499.2l5.971-0.344c25.464-2.958 45.229-24.598 45.229-50.856 0-28.277-22.923-51.2-51.2-51.2v0h-51.2l-5.971-0.344c-25.464-2.958-45.229-24.598-45.229-50.856v0-153.6l0.344-5.971c2.958-25.464 24.598-45.229 50.856-45.229v0h51.2l5.971-0.344c25.464-2.958 45.229-24.598 45.229-50.856 0-28.277-22.923-51.2-51.2-51.2v0h-51.2l-9.025 0.261c-80.63 4.672-144.575 71.538-144.575 153.339v0 153.6l0.261 9.025c4.672 80.63 71.538 144.575 153.339 144.575v0h51.2zM614.4 601.6c56.554 0 102.4-45.846 102.4-102.4v0-102.4c0-56.554-45.846-102.4-102.4-102.4v0h-204.8c-56.554 0-102.4 45.846-102.4 102.4v0 102.4c0 56.554 45.846 102.4 102.4 102.4v0zM614.4 499.2h-204.8v-102.4h204.8v102.4zM870.4 857.6c81.801 0 148.667-63.945 153.339-144.575l0.261-9.025v-153.6c0-81.801-63.945-148.667-144.575-153.339l-9.025-0.261h-51.2c-28.277 0-51.2 22.923-51.2 51.2 0 26.257 19.765 47.898 45.229 50.856l5.971 0.344h51.2c26.257 0 47.898 19.765 50.856 45.229l0.344 5.971v153.6c0 26.257-19.765 47.898-45.229 50.856l-5.971 0.344h-51.2c-28.277 0-51.2 22.923-51.2 51.2 0 26.257 19.765 47.898 45.229 50.856l5.971 0.344h51.2zM614.4 960c56.554 0 102.4-45.846 102.4-102.4v0-102.4c0-56.554-45.846-102.4-102.4-102.4v0h-204.8c-56.554 0-102.4 45.846-102.4 102.4v0 102.4c0 56.554 45.846 102.4 102.4 102.4v0zM614.4 857.6h-204.8v-102.4h204.8v102.4z" />
<glyph unicode="&#xe938;" glyph-name="star" d="M334.793 644.688l-288.882-41.727-6.093-1.22c-39.391-10.177-53.858-60.218-23.587-89.534l208.992-202.402-49.305-285.886-0.698-5.859c-2.645-40.508 40.898-69.819 78.401-50.23l258.379 134.948 258.379-134.948 5.393-2.47c37.959-15.017 79.472 17.070 72.31 58.559l-49.359 285.886 209.046 202.402 4.208 4.545c25.847 31.237 7.946 80.17-33.887 86.209l-288.936 41.727-129.131 260.052c-19.644 39.546-76.402 39.546-96.046 0l-129.184-260.052zM512 761.051l93.627-188.564 3.257-5.656c8.35-12.638 21.803-21.247 37.065-23.45l209.327-30.22-151.462-146.717-4.408-4.825c-9.517-11.796-13.601-27.167-10.994-42.27l35.766-207.154-187.257 97.801-5.981 2.674c-14.232 5.348-30.209 4.457-43.86-2.674l-187.311-97.801 35.819 207.154 0.711 6.478c0.721 15.101-5.069 29.922-16.113 40.617l-151.516 146.717 209.38 30.22c17.443 2.518 32.521 13.403 40.322 29.106l93.627 188.564z" />
<glyph unicode="&#xe939;" glyph-name="more" d="M512 163.556c62.838 0 113.778-50.94 113.778-113.778s-50.94-113.778-113.778-113.778c-62.838 0-113.778 50.94-113.778 113.778s50.94 113.778 113.778 113.778zM512 561.778c62.838 0 113.778-50.94 113.778-113.778s-50.94-113.778-113.778-113.778c-62.838 0-113.778 50.94-113.778 113.778s50.94 113.778 113.778 113.778zM512 960c62.838 0 113.778-50.94 113.778-113.778s-50.94-113.778-113.778-113.778c-62.838 0-113.778 50.94-113.778 113.778s50.94 113.778 113.778 113.778z" />
<glyph unicode="&#xe93a;" glyph-name="ticket" d="M307.2 960c13.579 0 26.602-5.394 36.204-14.996v0l42.415-42.415c28.806-28.806 67.874-44.988 108.612-44.988v0h35.138c40.737 0 79.806 16.183 108.612 44.988v0l42.415 42.415c9.602 9.602 22.625 14.996 36.204 14.996v0h51.2c84.831 0 153.6-68.769 153.6-153.6v0-716.8c0-84.831-68.769-153.6-153.6-153.6v0h-51.2c-13.579 0-26.602 5.394-36.204 14.996v0l-42.415 42.415c-28.806 28.806-67.874 44.988-108.612 44.988v0h-35.138c-40.737 0-79.806-16.183-108.612-44.988v0l-42.415-42.415c-9.602-9.602-22.625-14.996-36.204-14.996v0h-51.2c-84.831 0-153.6 68.769-153.6 153.6v0 716.8c0 84.831 68.769 153.6 153.6 153.6v0zM285.952 857.6h-29.952c-26.257 0-47.898-19.765-50.856-45.229v0l-0.344-5.971v-204.8h102.4c28.277 0 51.2-22.923 51.2-51.2s-22.923-51.2-51.2-51.2h-102.4v-409.6c0-28.277 22.923-51.2 51.2-51.2v0h29.901l27.511 27.419c44.809 44.809 104.518 71.291 167.482 74.623v0l13.538 0.358h35.138c67.895 0 133.010-26.971 181.019-74.981v0l27.46-27.419h29.952c26.257 0 47.898 19.765 50.856 45.229v0l0.344 5.971v409.6h-102.4c-28.277 0-51.2 22.923-51.2 51.2s22.923 51.2 51.2 51.2h102.4v204.8c0 28.277-22.923 51.2-51.2 51.2v0h-30.003l-27.408-27.419c-48.009-48.009-113.124-74.981-181.019-74.981v0h-35.138c-67.895 0-133.010 26.971-181.019 74.981v0l-27.46 27.419zM563.2 601.6c28.277 0 51.2-22.923 51.2-51.2 0-26.257-19.765-47.898-45.229-50.856l-5.971-0.344h-102.4c-28.277 0-51.2 22.923-51.2 51.2 0 26.257 19.765 47.898 45.229 50.856l5.971 0.344h102.4z" />
<glyph unicode="&#xe93b;" glyph-name="person" d="M512 960c169.662 0 307.2-137.538 307.2-307.2 0-79.616-30.287-152.157-79.967-206.732 12.118-5.953 23.961-12.425 35.54-19.361 58.018-34.755 108.681-80.732 148.926-135.077 64.759-87.448 100.301-193.321 100.301-304.43 0-28.277-22.923-51.2-51.2-51.2s-51.2 22.923-51.2 51.2c0 88.978-28.384 173.529-80.192 243.489-32.231 43.523-72.815 80.353-119.257 108.173-24.815 14.865-51.132 27.058-78.554 36.355-39.904-19.025-84.514-29.617-131.597-29.617s-91.692 10.592-131.575 29.524l13.943 4.548c-32.468-9.716-63.519-23.438-92.518-40.81-46.442-27.821-87.026-64.651-119.257-108.173-51.809-69.96-80.192-154.511-80.192-243.489 0-28.277-22.923-51.2-51.2-51.2s-51.2 22.923-51.2 51.2c0 111.11 35.541 216.982 100.301 304.43 40.245 54.345 90.909 100.322 148.926 135.077 11.579 6.936 23.422 13.408 35.502 19.401-49.643 54.535-79.929 127.076-79.929 206.692 0 169.662 137.538 307.2 307.2 307.2zM512 857.6c-113.108 0-204.8-91.692-204.8-204.8s91.692-204.8 204.8-204.8c113.108 0 204.8 91.692 204.8 204.8s-91.692 204.8-204.8 204.8z" />
<glyph unicode="&#xe93c;" glyph-name="photo" d="M870.4 960c84.831 0 153.6-68.769 153.6-153.6v0-716.8c0-84.831-68.769-153.6-153.6-153.6v0h-716.8c-84.831 0-153.6 68.769-153.6 153.6v0 716.8c0 84.831 68.769 153.6 153.6 153.6v0zM327.020 394.848l-4.823-4.259-219.796-219.785v-81.203c0-26.257 19.765-47.898 45.229-50.856l5.971-0.344h716.8c28.277 0 51.2 22.923 51.2 51.2v0 29.952l-130.444 130.484c-15.689 15.689-39.462 19.328-58.912 9.689l-5.693-3.291-31.768-21.169 7.020-7.060c19.995-19.995 19.995-52.413 0-72.408-18.457-18.457-47.499-19.877-67.584-4.259l-4.823 4.259-234.792 234.792c-18.457 18.457-47.499 19.877-67.584 4.259zM870.4 857.6h-716.8c-28.277 0-51.2-22.923-51.2-51.2v0-490.701l147.388 147.297c57.585 57.585 149.518 59.889 209.851 6.91l7.372-6.91 153.891-153.902 48.848 32.541c58.152 38.768 134.708 33.211 186.576-12.403l7.237-6.788 58.036-58.047v542.003c0 26.257-19.765 47.898-45.229 50.856l-5.971 0.344zM691.2 806.4c98.969 0 179.2-80.231 179.2-179.2s-80.231-179.2-179.2-179.2c-98.969 0-179.2 80.231-179.2 179.2s80.231 179.2 179.2 179.2zM691.2 704c-42.415 0-76.8-34.385-76.8-76.8s34.385-76.8 76.8-76.8c42.415 0 76.8 34.385 76.8 76.8s-34.385 76.8-76.8 76.8z" />
<glyph unicode="&#xe93d;" glyph-name="table" d="M870.4 960c84.831 0 153.6-68.769 153.6-153.6v0-716.8c0-84.831-68.769-153.6-153.6-153.6v0h-716.8c-84.831 0-153.6 68.769-153.6 153.6v0 716.8c0 84.831 68.769 153.6 153.6 153.6v0zM460.8 243.2h-358.4v-153.6c0-26.257 19.765-47.898 45.229-50.856l5.971-0.344h307.2v204.8zM921.6 243.2h-358.4v-204.8h307.2c26.257 0 47.898 19.765 50.856 45.229l0.344 5.971v153.6zM460.8 550.4h-358.4v-204.8h358.4v204.8zM921.6 550.4h-358.4v-204.8h358.4v204.8zM460.8 857.6h-307.2c-28.277 0-51.2-22.923-51.2-51.2v0-153.6h358.4v204.8zM870.4 857.6h-307.2v-204.8h358.4v153.6c0 26.257-19.765 47.898-45.229 50.856l-5.971 0.344z" />
<glyph unicode="&#xe93e;" glyph-name="analytics" d="M236.307 448c21.752 0 39.385-17.633 39.385-39.385v-433.231c0-21.752-17.633-39.385-39.385-39.385h-157.538c-21.752 0-39.385 17.633-39.385 39.385v433.231c0 21.752 17.633 39.385 39.385 39.385h157.538zM945.23 960c21.752 0 39.385-17.633 39.385-39.385v-945.231c0-21.752-17.633-39.385-39.385-39.385h-157.538c-21.752 0-39.385 17.633-39.385 39.385v945.231c0 21.752 17.633 39.385 39.385 39.385h157.538zM590.769 684.308c21.752 0 39.385-17.633 39.385-39.385v-669.538c0-21.752-17.633-39.385-39.385-39.385h-157.538c-21.752 0-39.385 17.633-39.385 39.385v669.538c0 21.752 17.633 39.385 39.385 39.385h157.538zM196.922 369.231h-78.769v-118.154h78.769v118.154zM551.384 605.538h-78.769v-236.308h78.769v236.308zM905.846 881.231h-78.769v-354.462h78.769v354.462z" />
<glyph unicode="&#xe93f;" glyph-name="camera" d="M665.6 960c19.393 0 37.122-10.957 45.795-28.303v0l88.247-176.497h70.758c81.801 0 148.667-63.945 153.339-144.575l0.261-9.025v-358.4c0-81.801-63.945-148.667-144.575-153.339l-9.025-0.261-92.326-0.049c-53.123-91.795-152.387-153.551-266.074-153.551s-212.95 61.756-266.074 153.551l-92.326 0.049c-81.801 0-148.667 63.945-153.339 144.575l-0.261 9.025v358.4c0 81.801 63.945 148.667 144.575 153.339l9.025 0.261h70.707l88.298 176.497c7.709 15.418 22.574 25.789 39.402 27.903l6.393 0.4zM512 448c-113.108 0-204.8-91.692-204.8-204.8s91.692-204.8 204.8-204.8c113.108 0 204.8 91.692 204.8 204.8s-91.692 204.8-204.8 204.8zM512 396.8c41.247 0 80.025-16.402 108.612-44.988s44.988-67.365 44.988-108.612c0-41.247-16.402-80.025-44.988-108.612-19.995-19.995-52.413-19.995-72.408 0-18.457 18.457-19.877 47.499-4.259 67.584l4.259 4.823c9.573 9.573 14.996 22.395 14.996 36.204s-5.423 26.631-14.996 36.204c-7.978 7.978-18.211 13.073-29.392 14.55l-6.812 0.446c-28.277 0-51.2 22.923-51.2 51.2s22.923 51.2 51.2 51.2zM870.4 652.8h-716.8c-26.257 0-47.898-19.765-50.856-45.229l-0.344-5.971v-358.4c0-26.257 19.765-47.898 45.229-50.856l5.971-0.344 55.454-0.041c-2.798 16.664-4.254 33.782-4.254 51.241 0 169.662 137.538 307.2 307.2 307.2s307.2-137.538 307.2-307.2c0-17.459-1.456-34.578-4.254-51.241l55.454 0.041c26.257 0 47.898 19.765 50.856 45.229l0.344 5.971v358.4c0 26.257-19.765 47.898-45.229 50.856l-5.971 0.344zM633.907 857.6h-243.866l-51.2-102.4h346.266l-51.2 102.4z" />
<glyph unicode="&#xe940;" glyph-name="italics" d="M836 880c29.826 0 54-24.174 54-54 0-27.692-20.847-50.517-47.706-53.639l-6.294-0.361h-223.236l-92.556-648h207.792c29.826 0 54-24.174 54-54 0-27.692-20.847-50.517-47.706-53.639l-6.294-0.361h-540c-29.826 0-54 24.174-54 54 0 27.692 20.847 50.517 47.706 53.639l6.294 0.361h223.182l92.556 648h-207.738c-29.826 0-54 24.174-54 54 0 27.692 20.847 50.517 47.706 53.639l6.294 0.361h540z" />
<glyph unicode="&#xe941;" glyph-name="quote" d="M223.844 856.002c94.179 0 174.653-53.973 206.843-130.115 90.138-169.654 13.045-391.977-218.507-666.17-18.792-22.249-53.627-26.279-77.819-9.002s-28.578 49.314-9.786 71.563c116.344 137.77 187.843 256.609 216.727 356.656-34.067-19.61-74.333-30.932-117.469-30.932-122.526 0-221.843 91.332-221.843 204s99.324 204 221.843 204zM778.453 856.002c94.122 0 174.55-53.895 206.782-129.963 90.246-169.676 13.184-392.053-218.439-666.322-18.792-22.249-53.627-26.279-77.819-9.002s-28.578 49.314-9.786 71.563c116.344 137.77 187.843 256.609 216.727 356.656-34.067-19.61-74.333-30.932-117.469-30.932-122.526 0-221.843 91.332-221.843 204s99.324 204 221.843 204z" />
<glyph unicode="&#xe942;" glyph-name="bold" d="M166.695 766.745c0 73.349 59.463 132.81 132.81 132.81v0h239.060c146.698 0 265.62-118.922 265.62-265.62 0-59.825-19.78-115.031-53.151-159.435 64.548-48.386 106.276-125.536 106.276-212.431 0-146.698-118.922-265.62-265.62-265.62v0h-292.183c-73.349 0-132.81 59.463-132.81 132.81v0zM591.687 368.315h-265.62v-212.496h265.62c58.678 0 106.25 47.568 106.25 106.25s-47.568 106.25-106.25 106.25v0zM538.562 740.183h-212.496v-212.496h212.496c58.678 0 106.25 47.568 106.25 106.25s-47.568 106.25-106.25 106.25v0z" />
<glyph unicode="&#xe943;" glyph-name="paperclip" d="M460.8 294.4c0-28.277 22.923-51.2 51.2-51.2 26.257 0 47.898 19.765 50.856 45.229l0.344 5.971v409.6c0 28.277 22.923 51.2 51.2 51.2 26.257 0 47.898-19.765 50.856-45.229l0.344-5.971v-409.6c0-84.831-68.769-153.6-153.6-153.6-81.801 0-148.667 63.945-153.339 144.575l-0.261 9.025v409.6c0 141.385 114.615 256 256 256 137.664 0 249.949-108.662 255.763-244.895l0.237-11.105v-409.6c0-197.939-160.461-358.4-358.4-358.4-193.815 0-351.698 153.845-358.192 346.079l-0.208 12.321v460.8c0 28.277 22.923 51.2 51.2 51.2 26.257 0 47.898-19.765 50.856-45.229l0.344-5.971v-460.8c0-141.385 114.615-256 256-256 137.664 0 249.949 108.662 255.763 244.895l0.237 11.105v409.6c0 84.831-68.769 153.6-153.6 153.6-81.801 0-148.667-63.945-153.339-144.575l-0.261-9.025v-409.6z" />
<glyph unicode="&#xe944;" glyph-name="livechat" d="M358.4-64c-13.332 0-26.044 5.194-35.523 14.327l-4.458 4.889-189.396 236.784h-26.624c-53.983 0-98.21 41.773-102.119 94.758l-0.281 7.642v204.8c0 56.554 45.846 102.4 102.4 102.4v0 51.2c0 165.806 131.357 300.932 295.683 306.988l11.517 0.212h204.8c165.806 0 300.932-131.357 306.988-295.683l0.212-11.517v-51.2c56.554 0 102.4-45.846 102.4-102.4v-204.8c0-56.554-45.846-102.4-102.4-102.4h-204.8v409.6h102.4v51.2c0 109.68-86.219 199.223-194.578 204.549l-10.222 0.251h-204.8c-109.68 0-199.223-86.219-204.549-194.578l-0.251-10.222v-51.2h102.4v-409.6h-47.104l119.757-149.709 35.153 70.206c7.709 15.418 22.574 25.789 39.402 27.903l6.393 0.4h153.6c26.257 0 47.898-19.765 50.856-45.229l0.344-5.971v-102.4c0-26.257-19.765-47.898-45.229-50.856l-5.971-0.344h-256zM204.8 499.2h-102.4v-204.8h102.4v204.8zM921.6 499.2h-102.4v-204.8h102.4v204.8z" />
<glyph unicode="&#xe945;" glyph-name="minus" d="M-16 360h1056v176h-1056z" />
<glyph unicode="&#xe946;" glyph-name="variable-list" horiz-adv-x="1434" d="M1331.2 140.8c56.554 0 102.4-45.846 102.4-102.4 0-52.514-39.53-95.796-90.458-101.711l-11.942-0.689h-614.4c-56.554 0-102.4 45.846-102.4 102.4 0 52.514 39.53 95.796 90.458 101.711l11.942 0.689h614.4zM307.2 140.8c56.554 0 102.4-45.846 102.4-102.4 0-52.514-39.53-95.796-90.458-101.711l-11.942-0.689h-204.8c-56.554 0-102.4 45.846-102.4 102.4 0 52.514 39.53 95.796 90.458 101.711l11.942 0.689h204.8zM1331.2 550.4c56.554 0 102.4-45.846 102.4-102.4 0-52.514-39.53-95.796-90.458-101.711l-11.942-0.689h-614.4c-56.554 0-102.4 45.846-102.4 102.4 0 52.514 39.53 95.796 90.458 101.711l11.942 0.689h614.4zM307.2 550.4c56.554 0 102.4-45.846 102.4-102.4 0-52.514-39.53-95.796-90.458-101.711l-11.942-0.689h-204.8c-56.554 0-102.4 45.846-102.4 102.4 0 52.514 39.53 95.796 90.458 101.711l11.942 0.689h204.8zM1331.2 960c56.554 0 102.4-45.846 102.4-102.4 0-52.514-39.53-95.796-90.458-101.711l-11.942-0.689h-614.4c-56.554 0-102.4 45.846-102.4 102.4 0 52.514 39.53 95.796 90.458 101.711l11.942 0.689h614.4zM307.2 960c56.554 0 102.4-45.846 102.4-102.4 0-52.514-39.53-95.796-90.458-101.711l-11.942-0.689h-204.8c-56.554 0-102.4 45.846-102.4 102.4 0 52.514 39.53 95.796 90.458 101.711l11.942 0.689h204.8z" />
<glyph unicode="&#xe947;" glyph-name="numbered-list" d="M870.4 960c84.831 0 153.6-68.769 153.6-153.6v0-716.8c0-84.831-68.769-153.6-153.6-153.6v0h-716.8c-84.831 0-153.6 68.769-153.6 153.6v0 716.8c0 84.831 68.769 153.6 153.6 153.6v0zM870.4 857.6h-716.8c-28.277 0-51.2-22.923-51.2-51.2v0-716.8c0-28.277 22.923-51.2 51.2-51.2v0h716.8c28.277 0 51.2 22.923 51.2 51.2v0 716.8c0 28.277-22.923 51.2-51.2 51.2v0zM768 294.4c28.277 0 51.2-22.923 51.2-51.2 0-26.257-19.765-47.898-45.229-50.856l-5.971-0.344h-307.2c-28.277 0-51.2 22.923-51.2 51.2 0 26.257 19.765 47.898 45.229 50.856l5.971 0.344h307.2zM266.445 343.893c31.949 0 51.405-16.998 51.405-41.779 0-22.303-14.93-36.477-26.127-46.404l-3.569-3.157-29.286-26.419h65.536v-25.6h-103.629l-3.891 20.89 47.923 43.213c13.312 12.083 21.299 21.299 21.299 33.382s-8.806 19.866-22.733 19.866c-12.112 0-22.871-6.771-30.598-14.896l-3.603-4.15-13.926 21.709c1.843 4.301 19.251 23.347 51.2 23.347zM768 499.2c28.277 0 51.2-22.923 51.2-51.2 0-26.257-19.765-47.898-45.229-50.856l-5.971-0.344h-307.2c-28.277 0-51.2 22.923-51.2 51.2 0 26.257 19.765 47.898 45.229 50.856l5.971 0.344h307.2zM275.661 725.845v-141.312h-31.949v118.579h-25.6v22.733h57.549zM768 704c28.277 0 51.2-22.923 51.2-51.2 0-26.257-19.765-47.898-45.229-50.856l-5.971-0.344h-307.2c-28.277 0-51.2 22.923-51.2 51.2 0 26.257 19.765 47.898 45.229 50.856l5.971 0.344h307.2z" />
<glyph unicode="&#xe948;" glyph-name="bullet-list" d="M870.4 960c84.831 0 153.6-68.769 153.6-153.6v0-716.8c0-84.831-68.769-153.6-153.6-153.6v0h-716.8c-84.831 0-153.6 68.769-153.6 153.6v0 716.8c0 84.831 68.769 153.6 153.6 153.6v0zM870.4 857.6h-716.8c-28.277 0-51.2-22.923-51.2-51.2v0-716.8c0-28.277 22.923-51.2 51.2-51.2v0h716.8c28.277 0 51.2 22.923 51.2 51.2v0 716.8c0 28.277-22.923 51.2-51.2 51.2v0zM768 294.4c28.277 0 51.2-22.923 51.2-51.2 0-26.257-19.765-47.898-45.229-50.856l-5.971-0.344h-307.2c-28.277 0-51.2 22.923-51.2 51.2 0 26.257 19.765 47.898 45.229 50.856l5.971 0.344h307.2zM256 294.4c28.277 0 51.2-22.923 51.2-51.2s-22.923-51.2-51.2-51.2c-28.277 0-51.2 22.923-51.2 51.2s22.923 51.2 51.2 51.2zM768 499.2c28.277 0 51.2-22.923 51.2-51.2 0-26.257-19.765-47.898-45.229-50.856l-5.971-0.344h-307.2c-28.277 0-51.2 22.923-51.2 51.2 0 26.257 19.765 47.898 45.229 50.856l5.971 0.344h307.2zM256 499.2c28.277 0 51.2-22.923 51.2-51.2s-22.923-51.2-51.2-51.2c-28.277 0-51.2 22.923-51.2 51.2s22.923 51.2 51.2 51.2zM768 704c28.277 0 51.2-22.923 51.2-51.2 0-26.257-19.765-47.898-45.229-50.856l-5.971-0.344h-307.2c-28.277 0-51.2 22.923-51.2 51.2 0 26.257 19.765 47.898 45.229 50.856l5.971 0.344h307.2zM256 704c28.277 0 51.2-22.923 51.2-51.2s-22.923-51.2-51.2-51.2c-28.277 0-51.2 22.923-51.2 51.2s22.923 51.2 51.2 51.2z" />
<glyph unicode="&#xe949;" glyph-name="list-of-objects" d="M870.4 960c81.801 0 148.667-63.945 153.339-144.575l0.261-9.025v-512c0-81.801-63.945-148.667-144.575-153.339l-9.025-0.261h-51.2v-51.2c0-84.831-68.769-153.6-153.6-153.6v0h-512c-84.831 0-153.6 68.769-153.6 153.6v0 512c0 84.831 68.769 153.6 153.6 153.6v0h51.2v51.2c0 81.801 63.945 148.667 144.575 153.339l9.025 0.261h512zM665.6 652.8h-512c-28.277 0-51.2-22.923-51.2-51.2v0-512c0-28.277 22.923-51.2 51.2-51.2v0h512c28.277 0 51.2 22.923 51.2 51.2v0 512c0 28.277-22.923 51.2-51.2 51.2v0zM614.4 243.2c28.277 0 51.2-22.923 51.2-51.2 0-26.257-19.765-47.898-45.229-50.856l-5.971-0.344h-204.8c-28.277 0-51.2 22.923-51.2 51.2 0 26.257 19.765 47.898 45.229 50.856l5.971 0.344h204.8zM256 243.2c28.277 0 51.2-22.923 51.2-51.2 0-26.257-19.765-47.898-45.229-50.856l-5.971-0.344h-51.2c-28.277 0-51.2 22.923-51.2 51.2 0 26.257 19.765 47.898 45.229 50.856l5.971 0.344h51.2zM870.4 857.6h-512c-26.257 0-47.898-19.765-50.856-45.229l-0.344-5.971v-51.2h358.4c81.801 0 148.667-63.945 153.339-144.575l0.261-9.025v-358.4h51.2c26.257 0 47.898 19.765 50.856 45.229l0.344 5.971v512c0 26.257-19.765 47.898-45.229 50.856l-5.971 0.344zM614.4 396.8c28.277 0 51.2-22.923 51.2-51.2 0-26.257-19.765-47.898-45.229-50.856l-5.971-0.344h-204.8c-28.277 0-51.2 22.923-51.2 51.2 0 26.257 19.765 47.898 45.229 50.856l5.971 0.344h204.8zM256 396.8c28.277 0 51.2-22.923 51.2-51.2 0-26.257-19.765-47.898-45.229-50.856l-5.971-0.344h-51.2c-28.277 0-51.2 22.923-51.2 51.2 0 26.257 19.765 47.898 45.229 50.856l5.971 0.344h51.2zM614.4 550.4c28.277 0 51.2-22.923 51.2-51.2 0-26.257-19.765-47.898-45.229-50.856l-5.971-0.344h-204.8c-28.277 0-51.2 22.923-51.2 51.2 0 26.257 19.765 47.898 45.229 50.856l5.971 0.344h204.8zM256 550.4c28.277 0 51.2-22.923 51.2-51.2 0-26.257-19.765-47.898-45.229-50.856l-5.971-0.344h-51.2c-28.277 0-51.2 22.923-51.2 51.2 0 26.257 19.765 47.898 45.229 50.856l5.971 0.344h51.2z" />
<glyph unicode="&#xe94a;" glyph-name="refresh" d="M512 960c137.594 0 266.673-54.596 362.039-149.961 17.204-17.205 33.14-35.578 47.693-54.968l-0.131 102.529c0 26.257 19.765 47.898 45.229 50.856l5.971 0.344c26.257 0 47.898-19.765 50.856-45.229l0.344-5.971v-256c0-26.257-19.765-47.898-45.229-50.856l-5.971-0.344h-256c-28.277 0-51.2 22.923-51.2 51.2 0 26.257 19.765 47.898 45.229 50.856l5.971 0.344 150.019-0.011c-17.896 30.933-39.815 59.469-65.188 84.842-76.352 76.352-179.474 119.969-289.631 119.969-226.216 0-409.6-183.384-409.6-409.6s183.384-409.6 409.6-409.6c110.157 0 213.279 43.617 289.631 119.969 38.039 38.039 68.313 83.187 88.911 132.861 10.241 24.697 18.040 50.389 23.261 76.778 5.488 27.739 32.423 45.778 60.163 40.291s45.778-32.423 40.291-60.163c-6.535-33.036-16.302-65.208-29.124-96.129-25.763-62.131-63.591-118.543-111.094-166.046-95.366-95.366-224.444-149.961-362.039-149.961-282.77 0-512 229.23-512 512s229.23 512 512 512z" />
<glyph unicode="&#xe94b;" glyph-name="cancel" d="M512 960c282.77 0 512-229.23 512-512s-229.23-512-512-512c-282.77 0-512 229.23-512 512s229.23 512 512 512zM835.621 699.112l-574.733-574.733c69.351-53.89 156.484-85.979 251.112-85.979 226.216 0 409.6 183.384 409.6 409.6 0 94.628-32.089 181.761-85.979 251.112zM512 857.6c-226.216 0-409.6-183.384-409.6-409.6 0-94.628 32.089-181.761 85.979-251.112l574.733 574.733c-69.351 53.89-156.484 85.979-251.112 85.979z" />
<glyph unicode="&#xe94c;" glyph-name="boolean" d="M512 960c84.831 0 153.6-68.769 153.6-153.6 0-66.861-42.72-123.745-102.354-144.844l-0.015-164.457c3.244-0.965 6.44-2.268 9.542-3.923v0l235.81-125.765 7.418-4.312c33.701-21.282 54.409-58.478 54.409-98.732v0l-0.010-153.519 66.196 66.156 4.823 4.259c20.085 15.617 49.128 14.198 67.584-4.259 19.995-19.995 19.995-52.413 0-72.408v0l-153.6-153.6-4.823-4.259c-20.085-15.617-49.128-14.198-67.584 4.259v0l-153.6 153.6-4.259 4.823c-15.617 20.085-14.198 49.128 4.259 67.584v0l4.823 4.259c20.085 15.617 49.128 14.198 67.584-4.259v0l66.196-66.156 0.010 153.519-0.342 3.12c-0.899 4.049-3.523 7.572-7.273 9.571v0l-235.81 125.765-5.106 3.114c-2.736 1.894-5.239 4.021-7.496 6.339-2.176-2.286-4.696-4.431-7.452-6.339l-5.106-3.114-235.81-125.765c-3.75-2-6.373-5.523-7.273-9.571l-0.342-3.12v-153.519l66.196 66.156c18.457 18.457 47.499 19.877 67.584 4.259l4.823-4.259c18.457-18.457 19.877-47.499 4.259-67.584l-4.259-4.823-153.6-153.6c-18.457-18.457-47.499-19.877-67.584-4.259l-4.823 4.259-153.6 153.6c-19.995 19.995-19.995 52.413 0 72.408 18.457 18.457 47.499 19.877 67.584 4.259l4.823-4.259 66.196-66.156v153.519c0 40.254 20.707 77.45 54.409 98.732l7.418 4.312 235.81 125.765c3.119 1.663 6.332 2.971 9.594 3.938l-0.026 164.424c-59.66 21.085-102.405 77.981-102.405 144.861 0 84.831 68.769 153.6 153.6 153.6zM512 857.6c-28.277 0-51.2-22.923-51.2-51.2s22.923-51.2 51.2-51.2c28.277 0 51.2 22.923 51.2 51.2s-22.923 51.2-51.2 51.2z" />
<glyph unicode="&#xe94d;" glyph-name="start" d="M512 960c282.77 0 512-229.23 512-512s-229.23-512-512-512c-282.77 0-512 229.23-512 512s229.23 512 512 512zM512 857.6c-226.216 0-409.6-183.384-409.6-409.6s183.384-409.6 409.6-409.6c226.216 0 409.6 183.384 409.6 409.6s-183.384 409.6-409.6 409.6zM358.4 652.8c0 40.893 45.575 65.284 79.601 42.601v0l307.2-204.8c30.399-20.266 30.399-64.936 0-85.202v0l-307.2-204.8c-34.025-22.683-79.601 1.708-79.601 42.601v0zM460.8 557.107v-218.163l163.635 109.056-163.635 109.107z" />
<glyph unicode="&#xe94e;" glyph-name="reset-zoom" d="M512 960c26.257 0 47.898-19.765 50.856-45.229l0.344-5.971 0.052-106.037c156.939-22.472 281.069-146.617 303.519-303.563h106.030c28.277 0 51.2-22.923 51.2-51.2 0-26.257-19.765-47.898-45.229-50.856l-5.971-0.344-106.037-0.052c-22.469-156.922-146.59-281.042-303.511-303.511l-0.052-106.037c0-28.277-22.923-51.2-51.2-51.2-26.257 0-47.898 19.765-50.856 45.229l-0.344 5.971v106.030c-156.946 22.45-281.091 146.58-303.563 303.519l-106.037 0.052c-28.277 0-51.2 22.923-51.2 51.2 0 26.257 19.765 47.898 45.229 50.856l5.971 0.344h106.030c22.452 156.963 146.607 281.118 303.57 303.57v106.030c0 28.277 22.923 51.2 51.2 51.2zM512 704c-141.385 0-256-114.615-256-256s114.615-256 256-256c141.385 0 256 114.615 256 256s-114.615 256-256 256zM512 550.4c56.554 0 102.4-45.846 102.4-102.4s-45.846-102.4-102.4-102.4c-56.554 0-102.4 45.846-102.4 102.4s45.846 102.4 102.4 102.4z" />
<glyph unicode="&#xe94f;" glyph-name="priority-high" d="M512 960c282.77 0 512-229.23 512-512s-229.23-512-512-512c-282.77 0-512 229.23-512 512s229.23 512 512 512zM512 857.6c-226.216 0-409.6-183.384-409.6-409.6s183.384-409.6 409.6-409.6c226.216 0 409.6 183.384 409.6 409.6s-183.384 409.6-409.6 409.6zM543.38 642.063l4.823-4.259 204.8-204.8c19.995-19.995 19.995-52.413 0-72.408-18.457-18.457-47.499-19.877-67.584-4.259l-4.823 4.259-168.596 168.556-168.596-168.556c-18.457-18.457-47.499-19.877-67.584-4.259l-4.823 4.259c-18.457 18.457-19.877 47.499-4.259 67.584l4.259 4.823 204.8 204.8c18.457 18.457 47.499 19.877 67.584 4.259z" />
<glyph unicode="&#xe950;" glyph-name="priority-low" d="M512 960c282.77 0 512-229.23 512-512s-229.23-512-512-512c-282.77 0-512 229.23-512 512s229.23 512 512 512zM512 857.6c-226.216 0-409.6-183.384-409.6-409.6s183.384-409.6 409.6-409.6c226.216 0 409.6 183.384 409.6 409.6s-183.384 409.6-409.6 409.6zM338.58 539.663l4.823-4.259 168.596-168.556 168.596 168.556c18.457 18.457 47.499 19.877 67.584 4.259l4.823-4.259c18.457-18.457 19.877-47.499 4.259-67.584l-4.259-4.823-204.8-204.8c-18.457-18.457-47.499-19.877-67.584-4.259l-4.823 4.259-204.8 204.8c-19.995 19.995-19.995 52.413 0 72.408 18.457 18.457 47.499 19.877 67.584 4.259z" />
<glyph unicode="&#xe951;" glyph-name="priority-medium" d="M512 960c282.77 0 512-229.23 512-512s-229.23-512-512-512c-282.77 0-512 229.23-512 512s229.23 512 512 512zM512 857.6c-226.216 0-409.6-183.384-409.6-409.6s183.384-409.6 409.6-409.6c226.216 0 409.6 183.384 409.6 409.6s-183.384 409.6-409.6 409.6zM716.8 499.2c28.277 0 51.2-22.923 51.2-51.2 0-26.257-19.765-47.898-45.229-50.856l-5.971-0.344h-409.6c-28.277 0-51.2 22.923-51.2 51.2 0 26.257 19.765 47.898 45.229 50.856l5.971 0.344h409.6z" />
<glyph unicode="&#xe952;" glyph-name="priority-trivial" d="M512 960c282.77 0 512-229.23 512-512s-229.23-512-512-512c-282.77 0-512 229.23-512 512s229.23 512 512 512zM512 857.6c-226.216 0-409.6-183.384-409.6-409.6s183.384-409.6 409.6-409.6c226.216 0 409.6 183.384 409.6 409.6s-183.384 409.6-409.6 409.6zM512.001 755.2c26.257 0 47.898-19.765 50.856-45.229l0.344-5.971-0.001-399.104 119.885 104.837c19.644 17.188 48.716 16.673 67.718-0.246l4.529-4.571c17.188-19.644 16.673-48.716-0.246-67.718l-4.571-4.529-204.406-178.859c-1.707-1.528-3.496-2.924-5.353-4.186-0.633-0.423-1.294-0.851-1.963-1.262l-3.041-1.734-1.969-0.977c-1.352-0.635-2.728-1.208-4.122-1.718-0.408-0.154-0.779-0.285-1.151-0.411-1.526-0.514-3.107-0.968-4.704-1.345-0.357-0.091-0.714-0.171-1.071-0.247-1.392-0.292-2.796-0.531-4.206-0.711l-1.256-0.060-0.277-0.117c-1.537-0.146-3.074-0.227-4.612-0.24 1.832-0.001 4.016 0.14 6.145 0.417l-1.256-0.060h0.256l-5.529-0.358-0.384 0.001c-1.538 0.012-3.075 0.093-4.605 0.243l-0.58 0.056c-0.325 0.035-0.65 0.073-0.973 0.115l0.83-0.099c-1.68 0.192-3.36 0.464-5.024 0.82-0.357 0.070-0.713 0.15-1.070 0.234-1.597 0.384-3.178 0.838-4.738 1.368-0.339 0.11-0.71 0.241-1.080 0.377-1.432 0.529-2.808 1.102-4.16 1.737l-0.483 0.231c-0.171 0.083-0.342 0.167-0.513 0.251-0.129 0.062-0.274 0.136-0.419 0.21l-0.554 0.284-3.047 1.73c-0.685 0.435-1.014 0.646-1.34 0.861l-0.617 0.404-0.53 0.392-0.982 0.686c-0.408 0.299-0.811 0.605-1.209 0.916l0.501-0.373-1.231 0.945-1.073 0.95-0.435 0.33 0.332-0.227-0.768 0.616c-0.691 0.622-1.107 1.013-1.516 1.411l0.185-0.183-203.033 177.584c-19.644 17.188-22.992 46.072-8.745 67.151l3.929 5.096c17.188 19.644 46.072 22.992 67.151 8.745l5.096-3.929 119.884-104.837 0.001 399.104c0 26.257 19.765 47.898 45.229 50.856l5.971 0.344z" />
<glyph unicode="&#xe953;" glyph-name="livechat-nav" d="M358.4-64c-13.332 0-26.044 5.194-35.523 14.327l-4.458 4.889-189.442 236.831-26.577-0.047c-54.095 0-98.393 41.946-102.143 95.087l-0.257 7.313v204.8c0 56.554 45.846 102.4 102.4 102.4v0 0 51.2c0 165.806 131.357 300.932 295.683 306.988l11.517 0.212h204.8c165.806 0 300.932-131.357 306.988-295.683l0.212-11.517v-51.2c56.554 0 102.4-45.846 102.4-102.4v-204.8c0-56.554-45.846-102.4-102.4-102.4h-204.8v409.6h102.4v51.2c0 109.68-86.219 199.223-194.578 204.549l-10.222 0.251h-204.8c-109.68 0-199.223-86.219-204.549-194.578l-0.251-10.222v-51.2h102.4v-409.6l-47.151 0.047 119.855-149.783 35.101 70.234c7.709 15.418 22.574 25.789 39.402 27.903l6.393 0.4h153.6c26.257 0 47.898-19.765 50.856-45.229l0.344-5.971v-102.4c0-26.257-19.765-47.898-45.229-50.856l-5.971-0.344h-256z" />
<glyph unicode="&#xe954;" glyph-name="workflows-nav" d="M614.4 243.2c56.554 0 102.4-45.846 102.4-102.4v0-102.4c0-56.554-45.846-102.4-102.4-102.4v0h-204.8c-56.554 0-102.4 45.846-102.4 102.4v0 102.4c0 56.554 45.846 102.4 102.4 102.4v0zM204.8 499.2l5.971-0.344c25.464-2.958 45.229-24.598 45.229-50.856 0-28.277-22.923-51.2-51.2-51.2v0h-51.2l-5.971-0.344c-25.464-2.958-45.229-24.598-45.229-50.856v0-153.6l0.344-5.971c2.958-25.464 24.598-45.229 50.856-45.229v0h51.2l5.971-0.344c25.464-2.958 45.229-24.598 45.229-50.856 0-28.277-22.923-51.2-51.2-51.2v0h-51.2l-9.025 0.261c-80.63 4.672-144.575 71.538-144.575 153.339v0 153.6l0.261 9.025c4.672 80.63 71.538 144.575 153.339 144.575v0h51.2zM614.4 601.6c56.554 0 102.4-45.846 102.4-102.4v0-102.4c0-56.554-45.846-102.4-102.4-102.4v0h-204.8c-56.554 0-102.4 45.846-102.4 102.4v0 102.4c0 56.554 45.846 102.4 102.4 102.4v0zM870.4 857.6c81.801 0 148.667-63.945 153.339-144.575l0.261-9.025v-153.6c0-81.801-63.945-148.667-144.575-153.339l-9.025-0.261h-51.2c-28.277 0-51.2 22.923-51.2 51.2 0 26.257 19.765 47.898 45.229 50.856l5.971 0.344h51.2c26.257 0 47.898 19.765 50.856 45.229l0.344 5.971v153.6c0 26.257-19.765 47.898-45.229 50.856l-5.971 0.344h-51.2c-28.277 0-51.2 22.923-51.2 51.2 0 26.257 19.765 47.898 45.229 50.856l5.971 0.344h51.2zM614.4 960c56.554 0 102.4-45.846 102.4-102.4v0-102.4c0-56.554-45.846-102.4-102.4-102.4v0h-204.8c-56.554 0-102.4 45.846-102.4 102.4v0 102.4c0 56.554 45.846 102.4 102.4 102.4v0z" />
<glyph unicode="&#xe955;" glyph-name="log-out" d="M665.6 960c81.069 0 148.615-60.575 153.336-138.605l0.264-8.74h-102.4c0 22.081-19.111 41.564-45.089 44.235l-6.111 0.311-373.197 0.040 179.58-80.136c52.388-23.374 87.184-73.929 90.889-130.809l0.328-10.099v-395.763l102.4-0.024c26.962 0 47.999 17.906 50.866 39.503l0.334 5.043h102.4c0-79.263-64.651-142.669-144.65-147.097l-8.95-0.247-102.4 0.013v-47.428c0-82.12-63.945-149.246-144.575-153.936l-9.025-0.262c-21.491 0-42.744 4.528-62.383 13.29v0l-256 114.22c-55.469 24.749-91.217 79.97-91.217 140.908v0 608.237c0 79.263 64.651 142.669 144.65 147.097l8.95 0.247h512zM153.6 801.818c-28.277 0-51.2-23.012-51.2-51.399v0-546c0-20.312 11.916-38.72 30.406-46.969v0l256-114.221c6.546-2.921 13.63-4.43 20.794-4.43 28.277 0 51.2 23.012 51.2 51.399v0 546c0 20.312-11.916 38.72-30.406 46.969v0l-256 114.221c-6.546 2.921-13.63 4.43-20.794 4.43zM850.58 743.624l4.823-4.276 153.6-154.198c1.383-1.388 2.687-2.856 3.906-4.395l-3.906 4.395c2.021-2.028 3.837-4.184 5.449-6.442 0.714-1.006 1.41-2.060 2.068-3.141 0.384-0.622 0.747-1.249 1.095-1.881 0.547-0.997 1.071-2.026 1.561-3.075 0.441-0.942 0.851-1.895 1.23-2.856 0.374-0.943 0.72-1.903 1.039-2.876 0.248-0.767 0.484-1.551 0.701-2.34 0.324-1.164 0.601-2.325 0.838-3.501 0.163-0.832 0.314-1.69 0.443-2.55 0.161-1.052 0.287-2.125 0.38-3.207 0.081-0.966 0.135-1.891 0.165-2.817 0.017-0.516 0.026-1.086 0.026-1.658l-0.028-1.709c-0.029-0.888-0.081-1.775-0.156-2.66l0.184 4.369c0-2.602-0.193-5.159-0.564-7.656-0.137-0.895-0.297-1.8-0.48-2.701-0.214-1.071-0.462-2.117-0.742-3.151-0.247-0.902-0.525-1.826-0.828-2.743-0.294-0.892-0.605-1.75-0.937-2.597-0.386-0.984-0.811-1.976-1.268-2.957-0.492-1.049-1.016-2.078-1.573-3.086-0.338-0.621-0.701-1.248-1.078-1.868-0.768-1.253-1.581-2.469-2.444-3.647-0.319-0.441-0.649-0.878-0.988-1.31-0.111-0.137-0.227-0.284-0.344-0.431l-3.748-4.197-153.6-154.198c-19.995-20.073-52.413-20.073-72.408 0-18.457 18.529-19.877 47.684-4.259 67.847l4.259 4.842 66.105 66.455-183.501-0.001c-28.277 0-51.2 23.012-51.2 51.399 0 26.359 19.765 48.084 45.229 51.053l5.971 0.346 183.552 0.012-66.156 66.441c-19.995 20.073-19.995 52.617 0 72.69 18.457 18.529 47.499 19.954 67.584 4.276z" />
<glyph unicode="&#xe956;" glyph-name="app-action" d="M307.2 857.6c28.277 0 51.2-22.923 51.2-51.2 0-26.257-19.765-47.898-45.229-50.856l-5.971-0.344c-26.257 0-47.898-19.765-50.856-45.229l-0.344-5.971v-102.4c0-44.924-33.775-89.48-101.753-142.79l-10.222-7.84 7.091-4.903c65.289-46.474 101.006-92.777 104.585-143.22l0.298-8.446v-102.4c0-26.257 19.765-47.898 45.229-50.856l5.971-0.344c28.277 0 51.2-22.923 51.2-51.2s-22.923-51.2-51.2-51.2c-81.801 0-148.667 63.945-153.339 144.575l-0.261 9.025v102.4c0 20.304-40.131 60.435-127.265 108.843-33.507 18.615-35.429 66.096-3.536 87.358 48.633 32.422 84.556 60.362 107.397 83.203 13.484 13.484 20.372 23.166 22.588 26.513l0.816 1.283v102.4c0 84.831 68.769 153.6 153.6 153.6zM716.799 857.6c84.831 0 153.6-68.769 153.6-153.6v0-102.4l0.816-1.283c2.216-3.347 9.104-13.029 22.588-26.513 22.841-22.841 58.764-50.781 107.397-83.203 31.893-21.262 29.972-68.743-3.536-87.358-87.134-48.408-127.265-88.539-127.265-108.843v0-102.4l-0.261-9.025c-4.672-80.63-71.538-144.575-153.339-144.575-28.277 0-51.2 22.923-51.2 51.2s22.923 51.2 51.2 51.2v0l5.971 0.344c25.464 2.958 45.229 24.598 45.229 50.856v0 102.4l0.298 8.446c3.579 50.443 39.295 96.747 104.585 143.22v0l7.091 4.903-10.222 7.84c-67.978 53.31-101.753 97.867-101.753 142.79v0 102.4l-0.344 5.971c-2.958 25.464-24.598 45.229-50.856 45.229v0l-5.971 0.344c-25.464 2.958-45.229 24.598-45.229 50.856 0 28.277 22.923 51.2 51.2 51.2zM614.4 499.2c28.277 0 51.2-22.923 51.2-51.2 0-26.257-19.765-47.898-45.229-50.856l-5.971-0.344h-204.8c-28.277 0-51.2 22.923-51.2 51.2 0 26.257 19.765 47.898 45.229 50.856l5.971 0.344h204.8z" />
<glyph unicode="&#xe957;" glyph-name="dropdown" d="M870.4 960c84.831 0 153.6-68.769 153.6-153.6v0-716.8c0-84.831-68.769-153.6-153.6-153.6v0h-716.8c-84.831 0-153.6 68.769-153.6 153.6v0 716.8c0 84.831 68.769 153.6 153.6 153.6v0zM870.4 857.6h-716.8c-28.277 0-51.2-22.923-51.2-51.2v0-716.8c0-28.277 22.923-51.2 51.2-51.2v0h716.8c28.277 0 51.2 22.923 51.2 51.2v0 716.8c0 28.277-22.923 51.2-51.2 51.2v0zM338.58 590.863l4.823-4.259 168.596-168.556 168.596 168.556c19.995 19.995 52.413 19.995 72.408 0 18.457-18.457 19.877-47.499 4.259-67.584l-4.259-4.823-204.8-204.8c-7.69-7.69-17.218-12.423-27.171-14.198l-6.011-0.71h-6.045c-10.065 0.592-19.989 4.141-28.358 10.648l-4.823 4.259-204.8 204.8c-19.995 19.995-19.995 52.413 0 72.408 18.457 18.457 47.499 19.877 67.584 4.259z" />
<glyph unicode="&#xe958;" glyph-name="end-message" d="M870.4 960c81.801 0 148.667-63.945 153.339-144.575l0.261-9.025v-716.8c0-81.801-63.945-148.667-144.575-153.339l-9.025-0.261h-716.8c-81.801 0-148.667 63.945-153.339 144.575l-0.261 9.025v716.8c0 81.801 63.945 148.667 144.575 153.339l9.025 0.261h716.8zM870.4 857.6h-716.8c-26.257 0-47.898-19.765-50.856-45.229l-0.344-5.971v-716.8c0-26.257 19.765-47.898 45.229-50.856l5.971-0.344h716.8c26.257 0 47.898 19.765 50.856 45.229l0.344 5.971v716.8c0 28.277-22.923 51.2-51.2 51.2zM645.78 386.063l4.823-4.259 66.196-66.156 66.196 66.156c19.995 19.995 52.413 19.995 72.408 0 18.457-18.457 19.877-47.499 4.259-67.584l-4.259-4.823-66.156-66.196 66.156-66.196c19.995-19.995 19.995-52.413 0-72.408-18.457-18.457-47.499-19.877-67.584-4.259l-4.823 4.259-66.196 66.156-66.196-66.156c-19.995-19.995-52.413-19.995-72.408 0-18.457 18.457-19.877 47.499-4.259 67.584l4.259 4.823 66.156 66.196-66.156 66.196c-19.995 19.995-19.995 52.413 0 72.408 18.457 18.457 47.499 19.877 67.584 4.259zM512 550.4c28.277 0 51.2-22.923 51.2-51.2 0-26.257-19.765-47.898-45.229-50.856l-5.971-0.344h-256c-28.277 0-51.2 22.923-51.2 51.2 0 26.257 19.765 47.898 45.229 50.856l5.971 0.344h256zM768 755.2c28.277 0 51.2-22.923 51.2-51.2 0-26.257-19.765-47.898-45.229-50.856l-5.971-0.344h-512c-28.277 0-51.2 22.923-51.2 51.2 0 26.257 19.765 47.898 45.229 50.856l5.971 0.344h512z" />
<glyph unicode="&#xe959;" glyph-name="loop" d="M460.8 908.8c118.447 0 229.892-44.959 314.47-123.98l11.365-10.986-72.408-72.408c-66.812 66.813-157.034 104.973-253.427 104.973-197.939 0-358.4-160.461-358.4-358.4s160.461-358.4 358.4-358.4c190.554 0 346.375 148.711 357.736 336.409l-14.332-14.213c-19.995-19.995-52.413-19.995-72.408 0-18.457 18.457-19.877 47.499-4.259 67.584l4.259 4.823 102.4 102.4c9.228 9.228 21.103 14.198 33.181 14.907h6.045c10.065-0.592 19.989-4.141 28.358-10.648l4.823-4.259 102.4-102.4c19.995-19.995 19.995-52.413 0-72.408-18.457-18.457-47.499-19.877-67.584-4.259l-4.823 4.259-15.456 15.424c-10.866-244.849-212.811-440.021-460.34-440.021-254.493 0-460.8 206.307-460.8 460.8s206.307 460.8 460.8 460.8z" />
</font>
</defs>
</svg>
