<?xml version="1.0" encoding="UTF-8"?>
<svg width="48px" height="44px" viewBox="0 0 48 44" version="1.1" xmlns="http://www.w3.org/2000/svg" xmlns:xlink="http://www.w3.org/1999/xlink">
    <title>brands/stripe/icon copy 5 2</title>
    <defs>
        <linearGradient x1="17.372046%" y1="-6.51038469%" x2="82.6280417%" y2="106.510385%" id="linearGradient-1">
            <stop stop-color="#5A62C3" offset="0%"></stop>
            <stop stop-color="#4D55BD" offset="50%"></stop>
            <stop stop-color="#3940AB" offset="100%"></stop>
        </linearGradient>
    </defs>
    <g id="Symbols" stroke="none" stroke-width="1" fill="none" fill-rule="evenodd">
        <g id="Block/Integrations/2" transform="translate(-984.000000, -394.000000)" fill-rule="nonzero">
            <g id="Group-Copy" transform="translate(216.000000, 392.000000)">
                <g id="Microsoft_Teams-Logo.wine" transform="translate(768.000000, 2.000000)">
                    <path d="M33.4805596,16.4999947 L45.8790766,16.4999947 C47.0504376,16.4999947 48,17.4357089 48,18.5899869 L48,29.7186869 C48,33.9609576 44.5100804,37.3999809 40.2050257,37.3999809 L40.1681777,37.3999809 C35.863123,37.4005751 32.372708,33.9620399 32.3720835,29.7197692 L32.3720835,17.592305 C32.3720835,16.9890312 32.8683791,16.4999947 33.4805596,16.4999947 L33.4805596,16.4999947 Z" id="Path" fill="#5059C9"></path>
                    <ellipse id="Oval" fill="#5059C9" cx="41.8604714" cy="9.34998992" rx="5.02325657" ry="4.94999841"></ellipse>
                    <ellipse id="Oval" fill="#7B83EB" cx="26.2325549" cy="7.15000477" rx="7.25582222" ry="7.15000477"></ellipse>
                    <path d="M35.9073578,16.4999947 L15.4414799,16.4999947 C14.2840742,16.5282198 13.3684955,17.4747359 13.3953508,18.6153046 L13.3953508,31.3082041 C13.2337237,38.1526565 18.7288756,43.8324959 25.6744296,43.9999947 C32.6199836,43.8324959 38.1151141,38.1526565 37.9535084,31.3082041 L37.9535084,18.6153046 C37.9803206,17.4747359 37.0647635,16.5282198 35.9073578,16.4999947 Z" id="Path" fill="#7B83EB"></path>
                    <path d="M1.99962818,10 L22.0003718,10 C23.1047449,10 24,10.8952761 24,11.9996282 L24,32.0003718 C24,33.1047449 23.1047239,34 22.0003718,34 L1.99962818,34 C0.895255066,34 0,33.1047239 0,32.0003718 L0,11.9996282 C0,10.8952761 0.895276113,10 1.99962818,10 Z" id="Path" fill="url(#linearGradient-1)"></path>
                    <polygon id="Path" fill="#FFFFFF" points="17.6640098 17.5757943 13.5728285 17.5757943 13.5728285 28.5537979 10.9663344 28.5537979 10.9663344 17.5757943 6.89414774 17.5757943 6.89414774 15.4462021 17.6640098 15.4462021"></polygon>
                </g>
            </g>
        </g>
    </g>
</svg>