<?xml version="1.0" encoding="UTF-8"?>
<svg width="48px" height="48px" viewBox="0 0 48 48" version="1.1" xmlns="http://www.w3.org/2000/svg" xmlns:xlink="http://www.w3.org/1999/xlink">
    <title>brands/stripe/icon copy 6</title>
    <g id="Symbols" stroke="none" stroke-width="1" fill="none" fill-rule="evenodd">
        <g id="Block/Integrations/2" transform="translate(-408.000000, -392.000000)">
            <g id="Group-Copy" transform="translate(216.000000, 392.000000)">
                <g id="Stripe-wordmark---blurple" transform="translate(192.000000, 0.000000)">
                    <path d="M37.7777778,0 L10.2222222,0 C4.6,0 0,4.6 0,10.2222222 L0,37.7777778 C0,43.4 4.6,48 10.2222222,48 L37.7777778,48 C43.4,48 48,43.4 48,37.7777778 L48,10.2222222 C48,4.6 43.4,0 37.7777778,0 L37.7777778,0 Z" id="Path" fill="#635BFF"></path>
                    <path d="M22.3748031,19.1472527 C22.3748031,18.1186813 23.1811024,17.7230769 24.5165354,17.7230769 C26.4314961,17.7230769 28.8503937,18.3296703 30.7653543,19.410989 L30.7653543,13.2131868 C28.6740157,12.3428571 26.607874,12 24.5165354,12 C19.4015748,12 16,14.7956044 16,19.4637363 C16,26.7428571 25.5748031,25.5824176 25.5748031,28.7208791 C25.5748031,29.9340659 24.5669291,30.3296703 23.1559055,30.3296703 C21.0645669,30.3296703 18.3937008,29.432967 16.2771654,28.2197802 L16.2771654,34.4967033 C18.6204724,35.5516484 20.9889764,36 23.1559055,36 C28.3968504,36 32,33.2835165 32,28.5626374 C31.9748031,20.7032967 22.3748031,22.1010989 22.3748031,19.1472527 Z" id="Path" fill="#FFFFFF"></path>
                </g>
            </g>
        </g>
    </g>
</svg>